<svg xmlns="http://www.w3.org/2000/svg" viewBox="0 0 93 79">
  <path d="M89.442 33.7399C87.2861 19.6487 78.4454 2.33145 60.9756.521513c0 0-13.2611-1.610103-26.3334.827887-7.76 1.45024-14.5649 5.76669-18.8709 11.9616-4.306 6.2006-5.7413 13.7544-3.9972 20.9599 1.1323 4.6819 1.8985 9.5236 1.687 14.3311-.366 8.3703-.1544 16.181 7.9772 21.1712 7.2624 4.4592 16.4062 8.3874 25.1268 9.0782 5.9243.4682 12.5749-.2912 18.2876-1.8328C93.971 69.1737 91.5978 47.8369 89.442 33.7399Z" fill="#F4F7FA"/>
  <path d="m39.0569 66.2846-15.3255-.6281 4.2431-9.929 9.8758.5824 2.6419 4.3165-1.4353 5.6582Z" fill="#1D4756"/>
  <path d="M53.4388 50.5034c.1029 0 .2002.0057.3031.0171l1.5954-.0171-.0114.6224c1.544 1.0734 2.6133 3.42 2.6133 6.1435 0 2.8319-1.1551 5.2528-2.7963 6.2634l-.0057.5025h-1.6927c-2.4875 0-4.5004-3.0261-4.5004-6.7659-.0114-3.7398 2.0072-6.7659 4.4947-6.7659Z" fill="#008747"/>
  <path d="M55.3317 64.0349c2.4855 0 4.5004-3.0292 4.5004-6.7659 0-3.7366-2.0149-6.7658-4.5004-6.7658s-4.5004 3.0292-4.5004 6.7658c0 3.7367 2.0149 6.7659 4.5004 6.7659Z" fill="url(#a)"/>
  <path d="M9.45848 55.6421c.1258 0 .24589.0057.3717.0171l1.95002-.0171-.0115.6966c1.8928 1.199 3.2024 3.8311 3.2024 6.88 0 3.1688-1.4182 5.8866-3.4311 7.0171l-.0114.5595H9.45276c-3.04793 0-5.51257-3.3915-5.51257-7.5766s2.47036-7.5766 5.51829-7.5766Z" fill="#00A451"/>
  <path d="M11.7802 70.7951c3.0445 0 5.5125-3.3922 5.5125-7.5766 0-4.1845-2.468-7.5767-5.5125-7.5767-3.04456 0-5.51262 3.3922-5.51262 7.5767 0 4.1844 2.46806 7.5766 5.51262 7.5766ZM30.4219 59.1592c.1258 0 .2459.0057.366.0171l1.9214-.0171-.0114.7137c1.8584 1.2333 3.1508 3.9282 3.1508 7.057 0 3.2488-1.3953 6.0351-3.3739 7.1941l-.0114.5767h-2.0415c-2.9964 0-5.4268-3.4772-5.4268-7.7708 0-4.2936 2.4304-7.7707 5.4268-7.7707Z" fill="#008747"/>
  <path d="M32.7093 74.7007c2.9971 0 5.4268-3.4791 5.4268-7.7708 0-4.2916-2.4297-7.7707-5.4268-7.7707-2.9972 0-5.4268 3.4791-5.4268 7.7707 0 4.2917 2.4296 7.7708 5.4268 7.7708Z" fill="#00A451"/>
  <path d="M33.4757 71.2977c1.6833 0 3.0479-1.9556 3.0479-4.3678 0-2.4123-1.3646-4.3679-3.0479-4.3679-1.6834 0-3.048 1.9556-3.048 4.3679 0 2.4122 1.3646 4.3678 3.048 4.3678Z" fill="#D8DEE8"/>
  <path d="M33.0126 70.9838c1.4306 0 2.5904-1.8149 2.5904-4.0538 0-2.2388-1.1598-4.0538-2.5904-4.0538-1.4307 0-2.5905 1.815-2.5905 4.0538 0 2.2389 1.1598 4.0538 2.5905 4.0538Z" fill="url(#b)"/>
  <path d="M84.5586 50.5032v8.0905c0 2.1125-1.8528 3.7455-3.9515 3.4885l-19.6943-2.4151v-9.1639h23.6458Z" fill="#1D4756"/>
  <path d="m75.6892 49.3784-5.4096 8.3931c-.772 1.199-2.0415 1.9926-3.4597 2.1639l-17.8873 2.1468-1.3667-9.0382 28.1233-3.6656Z" fill="#29607D"/>
  <path d="M74.4427 53.4666c.103 0 .2002.0057.3031.0171l1.5955-.0171-.0115.6223c1.544 1.0734 2.6134 3.42 2.6134 6.1435 0 2.832-1.1552 5.2528-2.7964 6.2634l-.0057.5025h-1.6927c-2.4875 0-4.5004-3.0261-4.5004-6.7659-.0057-3.7341 2.0129-6.7658 4.4947-6.7658Z" fill="#008747"/>
  <path d="M76.3412 66.9983c2.4855 0 4.5004-3.0292 4.5004-6.7659 0-3.7367-2.0149-6.7658-4.5004-6.7658s-4.5004 3.0291-4.5004 6.7658c0 3.7367 2.0149 6.7659 4.5004 6.7659Z" fill="#00A451"/>
  <path d="M76.9702 64.0349c1.3959 0 2.5275-1.7025 2.5275-3.8026 0-2.1001-1.1316-3.8026-2.5275-3.8026s-2.5276 1.7025-2.5276 3.8026c0 2.1001 1.1317 3.8026 2.5276 3.8026Z" fill="#D8DEE8"/>
  <path d="M76.5929 63.7609c1.1843 0 2.1444-1.5798 2.1444-3.5285 0-1.9488-.9601-3.5285-2.1444-3.5285-1.1843 0-2.1444 1.5797-2.1444 3.5285 0 1.9487.9601 3.5285 2.1444 3.5285Z" fill="url(#c)"/>
  <path d="m54.9085 55.7276 36.741-5.0815c.6062-.0857 1.0522-.5995 1.0522-1.2105V17.1193c0-.6623-.5261-1.199-1.1837-1.2218l-36.6152-1.1248v40.9549h.0057Z" fill="#008747"/>
  <path d="m26.0703 53.4666 28.8381 2.261V14.7727l-27.4085 1.4445c-.8006.04-1.4296.7023-1.4296 1.5074v35.742Z" fill="#00A451"/>
  <path d="M49.3387 31.7186c.995 4.4592 3.3167 17.3229.7263 31.1458-.1945 1.0277-1.0179 1.8214-2.053 1.9869l-8.9493 1.4274s-.0915-8.4616-4.3861-9.0154c-4.3002-.5538-8.3317 3.4714-8.6005 10.4428 0 0-9.3153 1.2504-23.37696-1.9698 0 0-1.881366-.3997-2.6876654-2.5236l.6347464-9.7292c.051466-.7993.423169-1.5416 1.029319-2.0668l8.2803-7.1427S17.4813 33.6313 19.986 31.5758c0 0 1.3438-2.1468 12.1803-2.4151 7.4625-.1827 12.6034.3083 15.0795.6337 1.0293.1428 1.8642.9079 2.0929 1.9242Z" fill="url(#d)"/>
  <path opacity=".6" d="m1.1151 52.0619.41172.451c-.17727 5.0073-1.263771 6.7773 7.92576 7.7251 9.19522.9421 8.90932-6.7659 8.90932-6.7659l12.0545-5.2471 10.0644-15.827c1.9958-1.6044 5.4897-2.044 7.8572-2.1468.4918.3483.852.8679.9893 1.4788.995 4.4592 3.3167 17.3229.7262 31.1458-.1944 1.0278-1.0179 1.8214-2.0529 1.987l-8.9494 1.4274s-.0915-8.4616-4.386-9.0155c-4.3003-.5538-8.3318 3.4715-8.6006 10.4429 0 0-9.3153 1.2504-23.37693-1.9698 0 0-1.88137-.3997-2.68767-2.5237l.634747-9.7291c.040029-.5196.205864-1.0106.480353-1.4331Z" fill="url(#e)"/>
  <path d="M30.548 45.907c-.326.5367-.9379.8279-1.5555.7537L9.89868 44.3255l.05147-.04s6.24455-8.8328 9.25245-11.9559l17.6013 1.0563c.6062.0342.955.7022.6405 1.2218L30.548 45.907ZM2.31018 53.3524c.01716-.1713.16584-.3026.34311-.3026 4.75774.04 10.73921 1.0392 12.71781 1.3932.3717.0685.6176.4282.5318.7993-.3888 1.6501-1.0293 2.7635-1.5039 3.4144-.3203.4396-.8178.7194-1.361.7593-1.4983.1199-4.81495.3198-6.42755-.0685-1.42961-.3426-2.80204-1.0163-3.53972-1.4217-.42888-.2341-.73196-.6509-.8063-1.1305-.17727-1.1647-.02859-2.7806.04575-3.4429Z" fill="#29607D"/>
  <path d="M25.5843 53.8092c.1316-.2683.0058-.5995-.2802-.7023-.4174-.1541-.995-.3368-1.3324-.2969-.4403.0514-4.1458 1.0106-5.8442 1.456-.5261.137-.8864.6223-.852 1.159.0743 1.1534.5146 2.9804 2.4932 3.186 2.762.2855 4.5004-2.1354 5.8156-4.8018Z" fill="#00A451"/>
  <path d="M7.75434 60.6264c7.21666 1.0049 8.68056-1.4673 8.68056-1.4673 1.7098.2512 4.1345-.08 5.5126-.3198.5261-.0913 1.035.1599 1.3267.5995.2173.3312.6176.6681 1.3438.7937 1.1837.2055 3.2023-.2455 4.1859-.5025-1.4353 1.9698-2.4418 4.522-2.579 7.9706 0 0-9.4697 1.2618-23.53137-1.9584 0 0-1.881371-.3996-2.6876706-2.5236l.4117276-6.3434C1.15527 58 3.08238 59.9756 7.75434 60.6264Z" fill="#29607D"/>
  <path d="M19.4886 61.8768c.8006-.08 1.4811.5595 1.4639 1.3646-.04 1.7129.1372 3.5057.2916 4.7104-4.0829.0114-10.5505-.3768-18.55057-2.2039 0 0-1.881371-.3997-2.6876706-2.5237l.2401746-3.6998C6.01022 62.7846 15.7201 62.2422 19.4886 61.8768Z" fill="#1D4756"/>
  <path d="m46.2564 34.3052-2.5904.6281c-.8463.2055-1.5897.7137-2.0815 1.4331l-6.4218 9.3466c-.4404.6394.1258 1.4845.8863 1.3246l11.1224-2.3466c.446-.0971.7777-.4797.7949-.9364.0686-1.6044.1429-5.4013-.4861-8.6558-.1087-.5652-.6634-.9306-1.2238-.7936Z" fill="#29607D"/>
  <defs>
    <linearGradient id="a" x1="59.8332" y1="57.2679" x2="50.8316" y2="57.2679" gradientUnits="userSpaceOnUse">
      <stop stop-color="#311944"/>
      <stop offset="1" stop-color="#6B3976"/>
    </linearGradient>
    <linearGradient id="b" x1="29.3223" y1="66.5314" x2="34.2931" y2="67.0696" gradientUnits="userSpaceOnUse">
      <stop offset=".0054054" stop-color="#D8DEE8"/>
      <stop offset="1" stop-color="#F4F7FA"/>
    </linearGradient>
    <linearGradient id="c" x1="72.1004" y1="60.8359" x2="79.0864" y2="59.894" gradientUnits="userSpaceOnUse">
      <stop offset=".0054054" stop-color="#D8DEE8"/>
      <stop offset="1" stop-color="#F4F7FA"/>
    </linearGradient>
    <linearGradient id="d" x1="51.2466" y1="48.5406" x2=".0058121" y2="48.5406" gradientUnits="userSpaceOnUse">
      <stop offset=".0054054" stop-color="#D8DEE8"/>
      <stop offset="1" stop-color="#F4F7FA"/>
    </linearGradient>
    <linearGradient id="e" x1="25.9582" y1="49.4551" x2="49.5518" y2="86.8696" gradientUnits="userSpaceOnUse">
      <stop offset=".0054054" stop-color="#D8DEE8"/>
      <stop offset="1" stop-color="#F4F7FA"/>
    </linearGradient>
  </defs>
</svg>