<svg xmlns="http://www.w3.org/2000/svg" viewBox="0 0 84 79">
  <path d="M36.52 78.5505C16.5491 75.4275-2.64536 61.7254.300603 40.076 2.81837 21.6123 21.4819 1.46443 40.2938.105632c1.3645-.097057 2.7404-.1313123 4.1334-.0856385C54.9265.334001 64.2497 4.66731 71.1464 11.2215c6.8625 6.5257 11.3272 15.2494 12.1379 24.4013C85.4481 59.9783 61.3608 82.4327 36.52 78.5505Z" fill="#F4F7FA"/>
  <path d="M55.5485 6.76953c5.8149 4.82007 11.6298 9.63377 17.4511 14.45377-15.0058 6.7456-13.26 27.3737-28.2658 34.1192-5.8149-4.8201-11.6298-9.6337-17.4511-14.4538 15.0058-6.752 13.26-27.3736 28.2658-34.11917Z" fill="#008747"/>
  <path d="M70.0543 20.9729C57.327 28.1484 57.8019 46.2606 45.0746 53.4297c-4.9484-4.1012-9.9033-8.2024-14.8517-12.3037 12.7273-7.1755 12.2523-25.2877 24.9796-32.45681 4.9549 4.10761 9.9033 8.20891 14.8518 12.30371Z" fill="url(#a)"/>
  <path d="M32.8671 39.0211c.0642.0513.122.1027.1797.1604.0064.0065.0129.0065.0129.0129.6803.6482.9948 1.4762.9178 2.2656-.0706.6867-.4429 1.3478-1.1489 1.8356-.1027.0706-.2118.1348-.3337.199-.4429.2374-.9499.3979-1.4891.4813-1.2451-1.0269-2.4838-2.0602-3.7289-3.0871 1.5981-.7189 3.0037-1.5917 4.2552-2.5866.4621.1284.9435.3916 1.335.7189ZM48.0656 51.6069c.4107.3402.6803.7124.9049 1.1617-1.2515.9884-2.6507 1.8613-4.236 2.5737l-3.8124-3.1578c.2953-.2888.6675-.5583 1.1104-.7958.1155-.0642.2374-.122.3594-.1797 1.8099-.828 4.0306-.828 5.5132.2695.0064.0065.0129.0065.0193.0129.0449.0385.0898.077.1412.1155ZM55.5492 6.76953c1.2451 1.02691 2.4839 2.06024 3.729 3.08716-.2953.28881-.6675.55841-1.1104.79581-.1155.0642-.2374.122-.3594.1798-1.7907.8215-3.9793.8343-5.4619-.2375-.0706-.0514-.1283-.0899-.1925-.1476-.3915-.3274-.706-.71888-.8601-1.09113 1.2516-.99483 2.6572-1.87412 4.2553-2.58654ZM69.1814 18.0657c1.2708 1.0526 2.5416 2.1051 3.8124 3.1577-1.5853.7124-2.9845 1.5789-4.236 2.5737-.552-.1925-1.0013-.4172-1.4056-.7573-.0449-.0385-.0963-.077-.1348-.122l-.0128-.0128c-.6611-.6097-1.0013-1.3799-.9884-2.1308.0128-.7574.3851-1.4955 1.1552-2.0218.1027-.0706.2118-.1412.3274-.1989.4428-.2439.9499-.4044 1.4826-.4878Z" fill="#008747"/>
  <path d="M24.5811 8.4895c7.5478.28882 15.0956.57764 22.6435.86004C39.42 23.829 53.3475 39.1428 45.5366 53.6223c-7.5478-.2888-15.0956-.5776-22.6435-.86 7.811-14.4859-6.1165-29.7933 1.688-44.2728Z" fill="#008747"/>
  <path d="M44.7405 10.9414c-5.7443 13.4333 5.6544 27.5212-.0834 40.961-6.4247-.2439-12.8493-.4878-19.2739-.7317 5.7443-13.4333-5.6544-27.5213.0834-40.961 6.4246.2439 12.8493.4878 19.2739.7317Z" fill="url(#b)"/>
  <path d="M26.1919 47.8846c.0834.0064.1604.0064.2439.0192h.0192c.9307.1027 1.688.5648 2.1052 1.2387.3658.5905.4685 1.335.2054 2.1501-.0385.122-.0899.2375-.1412.3595-.2054.4556-.5135.8921-.8857 1.29-1.611-.0642-3.222-.1219-4.8329-.1861.8279-1.5404 1.412-3.0872 1.8035-4.6468.43-.1605.9691-.2439 1.4826-.2246ZM45.9088 48.6354c.5327.0193.9692.1476 1.4249.3723-.3915 1.5468-.9756 3.0871-1.7971 4.6211-1.6495-.0642-3.299-.1284-4.9485-.1861.0578-.4108.1926-.8472.398-1.3094.0577-.1219.1155-.2438.1733-.3594.9306-1.7586 2.6956-3.1128 4.544-3.1385h.0193c.0642-.0064.1284-.0064.1861 0ZM24.5809 8.4895c1.611.06418 3.222.12195 4.8329.18613-.0577.41076-.1925.8472-.3979 1.30931-.0578.12196-.1155.24386-.1733.35946-.9242 1.7457-2.6507 3.0807-4.4799 3.1385h-.2439c-.507-.0193-1.0012-.1412-1.3478-.3402.3979-1.566.982-3.1192 1.8099-4.6532ZM42.2759 9.16357c1.6495.06419 3.299.12837 4.9485.18613-.828 1.534-1.4056 3.0743-1.7971 4.6211-.5584.1797-1.0462.276-1.5789.2567-.0578 0-.122-.0064-.1797-.0128h-.0193c-.8921-.0834-1.6302-.4878-2.0795-1.0911-.4493-.6097-.6033-1.4184-.3081-2.3105.0386-.122.0835-.2375.1412-.3595.1926-.46208.5007-.89852.8729-1.29003Z" fill="#008747"/>
  <path d="M58.3087 24.2592c.5199.2054.7894.7574.5969 1.2259L46.8522 55.1244c-.2054.507-.9306.8664-1.4633.6418l-19.6397-8.164c-.5263-.2182-.7445-.982-.5263-1.4762l12.156-29.1771c.199-.4557.7831-.6675 1.2901-.4685l19.6397 7.7788Z" fill="url(#c)"/>
  <path d="M58.6297 23.6749c.5262.2054.7958.7638.6033 1.2323l-12.2781 30.018c-.2053.507-.8215.7381-1.3606.5134l-19.7617-8.2088c-.5263-.2183-.783-.8087-.5648-1.3029l12.2909-29.6008c.199-.4621.783-.6739 1.2965-.4685l19.7745 7.8173Z" fill="#008747"/>
  <g opacity=".7" fill="#F4F7FA">
    <path opacity=".7" d="m43.7969 44.2132-2.0795 4.8714c-.0898.2182-.353.3338-.5776.2567l-1.2259-.4107c-.2246-.077-.3273-.3145-.2374-.5327l2.0923-4.8715c.0898-.2118.3466-.3273.5712-.2503l1.213.4108c.2311.0706.3402.3081.2439.5263ZM46.5375 37.8015l-2.041 4.7816c-.0898.2118-.3466.3273-.5712.2503l-1.213-.4108c-.2247-.077-.3274-.308-.2375-.5263l2.0538-4.7815c.0899-.2118.3466-.3209.5648-.2439l1.2066.4108c.2183.077.3274.308.2375.5198ZM49.2266 31.505l-2.0024 4.6981c-.0899.2118-.3402.3209-.5584.2439l-1.2002-.4108c-.2183-.077-.3274-.308-.2375-.5134l2.0217-4.6917c.0899-.2054.3402-.3145.5584-.2375l1.1938.4044c.2054.0706.3081.3016.2246.507ZM51.8646 25.3244l-1.9704 4.6147c-.0899.2054-.3402.3145-.552.2375l-1.1937-.4044c-.2183-.077-.321-.3016-.2375-.507l1.9832-4.6083c.0899-.2054.3338-.3081.552-.2375l1.1809.4044c.2182.0706.3209.2952.2375.5006Z"/>
  </g>
  <g opacity=".42">
    <path opacity=".42" d="m48.2129 44.2904-2.7727 6.7198c-.0513.1284-.2053.1862-.3465.1284l-1.1297-.4685c-.1347-.0578-.2053-.2054-.154-.3338l2.7855-6.707c.0514-.1284.2054-.1861.3402-.1284l1.1167.4557c.1412.0642.2118.2118.1605.3338Z" fill="url(#d)"/>
    <path opacity=".42" d="m53.5721 31.4025-3.6905 8.9405c-.0513.1284-.2053.1861-.3465.1284l-1.1296-.4557c-.1348-.0578-.2054-.2054-.1541-.3338l3.7033-8.9213c.0514-.1219.2054-.1797.3402-.1283l1.1168.4493c.1412.0513.2118.1989.1604.3209Z" fill="url(#e)"/>
  </g>
  <path opacity=".4" d="M42.122 20.6264c1.3606.5391 1.9832 2.1116 1.3991 3.4979-.5776 1.3735-2.1244 2.041-3.4594 1.5083s-1.9639-2.0731-1.412-3.453c.5584-1.3928 2.1116-2.0923 3.4723-1.5532Z" fill="#EEF2F6"/>
  <path d="m60.9915 36.9288 2.5545 29.7933c.0642.7701-.1669 1.489-.6547 2.0089-.4172.4428-.982.7445-1.6366.8022l-37.585 3.1642c-1.5917.1348-2.9588-1.0012-3.0679-2.5159l-2.3619-31.6931c-.1091-1.489 1.0718-2.7919 2.6571-2.8433l37.354-1.213c1.4056-.0514 2.6186 1.0911 2.7405 2.4967Z" fill="#29607D"/>
  <path opacity=".7" d="M58.2446 68.2302c-.0064 0-.0064 0 0 0l-1.2965.077c-.1476.0128-.276-.1091-.2888-.2568-.0128-.1476.0963-.2567.2439-.2695l1.29-.0835c.2247 0 .4365-.0898.6419-.154.1412-.0449.2888.0193.3337.154.0449.1412-.0257.3081-.1669.353-.2439.0835-.4942.1798-.7573.1798Zm-3.3246.2182-2.041.1668c-.1477.0129-.2824-.0962-.2889-.2438-.0128-.1477.0963-.276.2504-.2889l2.0345-.1668c.1476-.0129.276.0962.2888.2439.0129.1476-.0962.2759-.2438.2888Zm-4.0884.3337-2.0667.1733c-.1476.0128-.2824-.0963-.2952-.2439-.0129-.1476.1026-.276.2503-.2888l2.0602-.1669c.1476-.0128.2824.0963.2952.2439.0129.1412-.0962.2696-.2438.2824Zm-4.1398.3402-2.0859.1733c-.154.0128-.2888-.0963-.2952-.2503-.0129-.1477.1027-.2824.2567-.2953l2.0859-.1668c.154-.0129.2824.0962.2952.2503.0065.1476-.1026.2759-.2567.2888Zm-4.1847.3402-2.1115.1732c-.1541.0129-.2889-.0962-.3017-.2503-.0128-.1476.1027-.2824.2567-.2952l2.1116-.1733c.1541-.0128.2888.0963.3017.2503.0128.1541-.1027.2824-.2568.2953Zm-4.236.3465-2.1372.1733c-.1541.0129-.2953-.1027-.3017-.2503-.0128-.154.1027-.2824.2632-.2952l2.1372-.1733c.1541-.0128.2888.0963.3017.2503.0064.154-.1091.2824-.2632.2952Zm-4.2937.353-2.163.1797c-.1604.0129-.2952-.1027-.3081-.2503-.0128-.154.1092-.2888.2632-.3016l2.1629-.1733c.1541-.0128.2953.1027.3081.2503.0128.1476-.1027.2824-.2631.2952Zm-4.3387.3595-2.1887.1797c-.1604.0128-.3016-.1027-.308-.2568-.0129-.154.1091-.2888.2695-.3016l2.1886-.1797c.1605-.0129.2953.1027.3081.2503.0064.1604-.1091.2888-.2695.3081Zm-4.3965.2952h-.0578c-.8023-.0899-1.5532-.4365-2.1244-.9884-.1155-.1091-.1091-.2888.0064-.3979.1155-.1091.3017-.1091.4172 0 .4749.4557 1.1103.7509 1.7778.8279.1605.0193.276.154.2504.3081-.0193.1348-.1348.2375-.2696.2503Zm35.2616-3.9793c-.0578.0064-.1155-.0064-.1669-.0449-.1219-.0835-.154-.2439-.077-.3659.3402-.5198.4942-1.1167.4429-1.7393-.0129-.1476.0962-.2696.2438-.2824.1477-.0128.276.0963.2824.2439.0642.7381-.1155 1.4569-.5262 2.0731-.045.0642-.122.1091-.199.1155Zm-38.1434 1.1874c-.1604.0128-.3016-.0899-.3209-.2375-.0064-.0385-.0128-.077-.0193-.1155l-.1476-1.9961c-.0128-.154.0835-.2888.2503-.3016.1605-.0129.276.1026.2889.2567l.1476 1.996c0 .0321.0385.0642.0385.1027.0192.1412-.0835.2824-.2375.2953-.0064 0 0 0 0 0Zm38.5734-4.1013c-.1476.0129-.2246-.0962-.2375-.2438l-.1668-1.9961c-.0129-.1476.0449-.2696.1925-.2824.1476-.0128.2246.0963.2375.2439l.1669 1.996c.0064.1412-.0514.2696-.1926.2824Zm-38.9264-.1091c-.1604.0129-.276-.1027-.2888-.2567l-.1605-2.1116c-.0128-.154.0835-.2888.2503-.3016.1605-.0129.276.1027.2889.2567l.1604 2.1052c.0064.1604-.0898.2952-.2503.308Zm38.5862-3.883c-.1476.0129-.2246-.0963-.2374-.2439l-.1669-1.996c-.0128-.1477.0449-.2696.1925-.2824.1477-.0129.2247.1027.2375.2439l.1669 1.9896c.0128.154-.0514.276-.1926.2888Zm-38.9007-.3337c-.1604.0128-.276-.1027-.2888-.2568l-.1605-2.1051c-.0128-.1541.0835-.2888.2504-.2953.1604-.0128.2759.1027.2888.2568l.1604 2.1051c.0064.1541-.0898.2888-.2503.2953Zm38.5606-3.652c-.1476.0064-.2247-.1027-.2375-.2439l-.1669-1.9896c-.0128-.1476.045-.2696.1926-.276.1476-.0064.2246.1027.2375.2439l.1668 1.9896c.0129.1412-.0449.2696-.1925.276Zm-38.8751-.552c-.1604.0129-.276-.1026-.2888-.2567l-.1604-2.0987c-.0129-.1541.0834-.2824.2503-.2953.1604-.0064.2759.1091.2888.2568l.1604 2.0987c.0065.154-.0898.2888-.2503.2952Zm38.5349-3.4209c-.1476.0065-.2246-.1026-.2375-.2438l-.1668-1.9833c-.0129-.1476.0449-.2695.1925-.276.1476-.0064.2246.1027.2375.2504l.1669 1.9832c.0128.1348-.045.2631-.1926.2695Zm-38.8494-.7766c-.1604.0065-.2759-.1091-.2888-.2631l-.154-2.0923c-.0129-.1541.0834-.2824.2503-.2889.1604-.0064.276.1092.2888.2632l.154 2.0923c.0065.1541-.0898.2824-.2503.2888Zm38.5157-3.1898c-.1477.0064-.2247-.1027-.2375-.2503l-.1669-1.9832c-.0128-.1412.0449-.2632.1926-.276.1476-.0064.2246.1027.2374.2503l.1669 1.9768c.0129.154-.0513.276-.1925.2824Zm-38.8302-.9948c-.1604.0064-.2759-.1091-.2888-.2632l-.154-2.0923c-.0128-.154.0834-.2824.2503-.2888.1605-.0064.276.1091.2888.2631l.1541 2.0859c.0064.1605-.0899.2889-.2504.2953Zm38.49-2.9652c-.1476.0064-.2246-.1027-.2375-.2503l-.1668-1.9768c-.0129-.1413.0449-.2632.1925-.2696.1476-.0064.2246.1091.2375.2503l.1668 1.9768c.0129.1412-.0449.2631-.1925.2696ZM20.435 42.8333c-.1605.0064-.276-.1091-.2889-.2631l-.1155-1.5725c-.0128-.1861-.0064-.3787.0128-.5584.0129-.154.1605-.2567.321-.2374.1604.0192.2503.154.2374.308-.0128.1541-.0449.3145-.0321.4686l.1156 1.566c.0064.154-.0899.2824-.2503.2888Zm38.4707-2.7341c-.1477.0064-.2247-.1091-.2375-.2503l-.0321-.3851c-.0385-.4878-.2567-.9628-.5391-1.3671-.0835-.122-.0771-.2824.0385-.3594.1155-.077.2631-.045.3466.077.3401.4878.5262 1.0462.5776 1.6302l.0321.3787c.0192.1476-.0385.2696-.1861.276Zm-37.6428-1.181c-.077 0-.1605-.0257-.2246-.0834-.1156-.1091-.122-.2824-.0129-.3851.5584-.5327 1.3029-.8729 2.0924-.9563.1604-.0129.308.0898.3273.2439.0257.1476-.0899.2824-.2439.3016-.6675.0706-1.2901.353-1.7522.8023-.0513.0449-.1219.0706-.1861.077Zm35.4349-1.8933c-.0321 0-.0642-.0065-.0963-.0129-.3209-.1091-.6611-.154-1.0012-.1476l-.8986.0321c-.1476.0064-.2759-.1091-.2888-.2503-.0128-.1412.0963-.2632.2439-.2696l.8986-.0321c.4043-.0128.8086.0449 1.1937.1733.1412.0449.2183.1926.1797.3338-.032.1027-.1283.1668-.231.1733Zm-4.0114-.0578-2.0281.0706c-.1477.0064-.276-.1091-.2889-.2503-.0128-.1476.0963-.2696.2439-.2696l2.0282-.0706c.1476-.0064.276.1091.2888.2503.0128.1476-.0963.2632-.2439.2696Zm-4.0691.1476-2.0538.0706c-.1477.0064-.2825-.1091-.2953-.2567-.0128-.1476.1027-.2696.2503-.276l2.0474-.0706c.1477-.0064.2824.1091.2889.2567.0256.1476-.0835.2696-.2375.276Zm-4.1141.1476-2.0731.077c-.154.0065-.2824-.1091-.2952-.2567-.0128-.1476.1027-.2696.2503-.276l2.0731-.0706c.1476-.0064.2824.1091.2952.2568.0129.1412-.0963.2631-.2503.2695Zm-4.159.1476-2.0987.0771c-.1541.0064-.2889-.1091-.3017-.2568-.0128-.1476.1027-.2695.2567-.2759l2.0988-.0771c.154-.0064.2888.1091.2952.2568.0129.1476-.0963.2759-.2503.2759Zm-4.2167.1541-2.1245.077c-.154.0064-.2888-.1091-.3016-.2567-.0129-.1476.1027-.276.2631-.2824l2.1244-.077c.1541-.0065.2889.1091.3017.2567.0128.154-.1027.276-.2631.2824Zm-4.2617.154-2.1501.077c-.1541.0065-.2953-.1091-.3081-.2631-.0128-.1476.1091-.276.2631-.2824l2.1501-.077c.1541-.0064.2953.1091.3017.2631.0193.1476-.0963.276-.2567.2824Zm-4.3131.1541-2.1757.077c-.1605.0064-.2953-.1091-.3081-.2632-.0128-.1476.1091-.276.2696-.2824l2.1757-.077c.1605-.0064.2953.1091.3081.2632.0064.1476-.1155.2759-.2696.2824Z" fill="#fff"/>
  <path d="M62.5062 45.1312c-.231-.1412-.5006-.1605-.7445-.0578l-7.6441 3.2669c-1.0975.4749-1.842 1.5853-1.7457 2.779l.2631 3.1771c.1027 1.2708 1.1361 2.3298 2.394 2.6122l7.9072 1.7329c.2504.0577.5199-.0129.7125-.1797.1925-.1669.3016-.4172.2759-.6675l-1.0333-12.0149c-.0128-.2696-.154-.507-.3851-.6482Z" fill="#1D4756"/>
  <path d="M57.4551 52.345c.077.8793-.5841 1.6367-1.4698 1.688-.8857.0514-1.6687-.6161-1.7458-1.5018-.0706-.8793.5905-1.6367 1.4762-1.688.8922-.0449 1.6688.629 1.7394 1.5018Z" fill="url(#f)"/>
  <defs>
    <linearGradient id="a" x1="30.2259" y1="31.0544" x2="70.0552" y2="31.0544" gradientUnits="userSpaceOnUse">
      <stop offset=".0054054" stop-color="#D8DEE8"/>
      <stop offset="1" stop-color="#F4F7FA"/>
    </linearGradient>
    <linearGradient id="b" x1="19.2521" y1="43.1655" x2="50.8687" y2="18.9412" gradientUnits="userSpaceOnUse">
      <stop offset=".0054054" stop-color="#D8DEE8"/>
      <stop offset="1" stop-color="#F4F7FA"/>
    </linearGradient>
    <linearGradient id="c" x1="52.0621" y1="16.717" x2="37.2534" y2="54.9079" gradientUnits="userSpaceOnUse">
      <stop stop-color="#311944"/>
      <stop offset="1" stop-color="#893976"/>
    </linearGradient>
    <linearGradient id="d" x1="44.5289" y1="50.9824" x2="46.6875" y2="43.4312" gradientUnits="userSpaceOnUse">
      <stop stop-color="#FB6FBB"/>
      <stop offset="1" stop-color="#FF9085"/>
    </linearGradient>
    <linearGradient id="e" x1="48.9792" y1="40.3155" x2="51.79" y2="30.4828" gradientUnits="userSpaceOnUse">
      <stop stop-color="#FB6FBB"/>
      <stop offset="1" stop-color="#FF9085"/>
    </linearGradient>
    <linearGradient id="f" x1="66.1357" y1="48.5613" x2="52.6213" y2="53.661" gradientUnits="userSpaceOnUse">
      <stop offset=".0054054" stop-color="#D8DEE8"/>
      <stop offset="1" stop-color="#F4F7FA"/>
    </linearGradient>
  </defs>
</svg>