<svg xmlns="http://www.w3.org/2000/svg" viewBox="0 0 92 79">
  <path d="M85.6626 53.5563c-9.0575 18.6413-32.9671 26.6516-51.6994 25.2871-5.1145-.3711-15.4064-1.1248-23.441-7.8162-15.43495-12.8463-13.05771-39.7091 1.7144-55.5243C14.1395 13.4647 27.3115-.180884 47.8267.0018178 62.8502.133135 73.3935 7.60678 74.6793 8.53742c1.6172 1.17614 5.1945 3.97378 8.4118 8.40428 7.566 10.4254 8.2289 24.9674 2.5715 36.6146Z" fill="#F4F7FA"/>
  <path d="M7.14502 44.8953S15.7111 67.4704 18.4198 72.1692c3.143 5.4526 12.3205 1.9755 11.8634-2.5863-.4572-4.5619-11.1777-23.4201-11.1777-23.4201L7.14502 44.8953Z" fill="#1D4756"/>
  <path d="m18.7226 28.4521 53.248-18.4472-.56 49.9233-54.1452-12.0755 1.4572-19.4006Z" fill="#00A451"/>
  <path d="M72.0221 60.7617c2.891 0 5.2345-11.485 5.2345-25.6524 0-14.1675-2.3435-25.65251-5.2345-25.65251-2.8909 0-5.2345 11.48501-5.2345 25.65251 0 14.1674 2.3436 25.6524 5.2345 25.6524Z" fill="#00A451"/>
  <path d="M72.4222 59.0089c-.4743-.4796-1.5029-2.3351-2.3887-7.1254-.8514-4.6303-1.3257-10.6423-1.3257-16.917 0-6.2747.4686-12.2867 1.3257-16.9171.8858-4.7959 1.9144-6.6457 2.3887-7.1253.4743.4796 1.5029 2.3351 2.3887 7.1253.8514 4.6304 1.3258 10.6424 1.3258 16.9171 0 6.2747-.4686 12.2867-1.3258 16.917-.8858 4.7903-1.9201 6.6458-2.3887 7.1254Z" fill="#008747"/>
  <path d="M79.1253 34.7723c0-4.3563-2.3487-7.8905-7.0003-7.8905-1.1258 0-2.2001.2056-3.183.5824-.1543 2.4037-.2286 4.9272-.2286 7.5022 0 2.4322.0686 4.8244.2057 7.1082.9886.3825 2.0687.5938 3.2059.5938 4.6516 0 7.0003-3.5342 7.0003-7.8961ZM10.1337 27.3787c2.503-.2912 6.0974-.3939 9.9833.491-1.2801 6.6801-1.0858 13.6399.3943 20.8452H9.55653c-1.74865 0-3.23443-1.2675-3.50873-2.9918-.54859-3.4542-1.21148-9.2607-.50288-13.9253.35431-2.3351 2.23439-4.145 4.58878-4.4191Z" fill="#29607D"/>
  <path d="M16.7054 32.4944H8.1736c-.29144 0-.54288-.1542-.68575-.4054-.13715-.2569-.12572-.5538.02858-.7936.06857-.1028.2-.1313.30287-.0628.10286.0685.13143.1998.06286.3026-.06858.1085-.07429.2341-.01143.3483.06286.1085.17143.177.29715.177h8.53752c.1886 0 .3372-.1542.3372-.3369v-.6052c0-.1884-.1543-.3368-.3372-.3368H8.10502c-.12 0-.21715-.0971-.21715-.217 0-.1199.09715-.2169.21715-.2169h8.60038c.4286 0 .7772.3482.7772.7764v.6052c0 .4168-.3486.7651-.7772.7651Z" fill="url(#a)"/>
  <path d="M15.9455 36.2684H7.40797c-.29144 0-.54288-.1541-.68574-.4053-.13715-.257-.12572-.5539.02857-.7937.06857-.1027.20001-.1313.30287-.0628.10286.0686.13144.1999.06286.3026-.06857.1085-.07429.2341-.01143.3483.06286.1085.17144.177.29716.177h8.54324c.1886 0 .3371-.1541.3371-.3368v-.611c0-.1884-.1542-.3368-.3371-.3368H7.34511c-.12 0-.21715-.0971-.21715-.217 0-.1199.09715-.2169.21715-.2169h8.60039c.4286 0 .7772.3482.7772.7764v.6053c0 .4224-.3486.7707-.7772.7707Z" fill="url(#b)"/>
  <path opacity=".69" d="M26.46 27.0991c-.0914 0-.1771-.0571-.2114-.1542-.0343-.1142.0286-.2398.1429-.274l40.3332-12.8234c.1142-.0343.24.0285.2743.1427.0342.1142-.0286.2398-.1429.2741L26.5229 27.0934c-.0229.0057-.04.0057-.0629.0057ZM21.0029 29.3315c-.0858 0-.1658-.0514-.2058-.1371-.0457-.1142.0057-.2398.12-.2854l2.0744-.845c.1143-.0457.24.0057.2857.1199.0458.1141-.0057.2398-.12.2854l-2.0686.845c-.0286.0115-.0572.0172-.0857.0172Z" fill="#fff"/>
  <path d="M16.7054 40.6931H8.1736c-.29144 0-.54288-.1541-.68575-.4053-.13715-.257-.12572-.5538.02858-.7936.06857-.1028.2-.1314.30287-.0629.10286.0686.13143.1999.06286.3027-.06858.1084-.07429.234-.01143.3482.06286.1085.17143.177.29715.177h8.53752c.1886 0 .3372-.1541.3372-.3368v-.6052c0-.1885-.1543-.3369-.3372-.3369H8.10502c-.12 0-.21715-.0971-.21715-.217 0-.1199.09715-.2169.21715-.2169h8.60038c.4286 0 .7772.3483.7772.7765v.6052c0 .4168-.3486.765-.7772.765Z" fill="url(#c)"/>
  <path d="M17.5055 45.6033H8.96803c-.29144 0-.54288-.1541-.68574-.4054-.13715-.2569-.12572-.5538.02857-.7936.06857-.1027.20001-.1313.30287-.0628.10286.0685.13143.1999.06286.3026-.06857.1085-.07429.2341-.01143.3483.06286.1085.17144.177.29716.177h8.53748c.1886 0 .3372-.1542.3372-.3369v-.6052c0-.1884-.1543-.3368-.3372-.3368H8.90517c-.12 0-.21715-.0971-.21715-.217 0-.1199.09715-.217.21715-.217h8.60033c.4286 0 .7772.3483.7772.7765v.6052c0 .4168-.3486.7651-.7772.7651Z" fill="url(#d)"/>
  <path d="M25.1286 72.2948c-.3943 0-.7886-.04-1.1886-.1313-1.7372-.3769-3.1487-1.5187-3.8745-3.1345l-6.8174-15.1357c-.0514-.1085 0-.2398.1086-.2912.1085-.0514.24 0 .2914.1085l6.8174 15.1357c.6686 1.4901 1.9716 2.5407 3.5716 2.889 1.5715.3425 3.1602-.0628 4.3602-1.1134.0629-.0571.1315-.1142.1943-.1713.0914-.0799.2286-.0742.3086.0115.08.0913.0743.2283-.0114.3083-.0686.0628-.1372.1199-.2.177-1.0058.8849-2.263 1.3474-3.5602 1.3474Z" fill="url(#e)"/>
  <path d="M12.4367 51.7866c-.0858 0-.1658-.0457-.2001-.1313l-.76-1.69c-.0514-.1085 0-.2398.1086-.2912s.24 0 .2914.1085l.7601 1.69c.0514.1084 0 .2398-.1086.2911-.0286.0172-.0629.0229-.0914.0229Z" fill="url(#f)"/>
  <path d="M77.8796 34.5497c-.1143 0-.2115-.0856-.2172-.2055-.1543-2.1353-.8915-3.7283-2.2001-4.7331-2.2629-1.7357-5.4974-1.1419-5.5259-1.1362-.12.0228-.2343-.0571-.2572-.1713-.0229-.1199.0571-.2341.1714-.2569.1429-.0286 3.4573-.6395 5.8803 1.2161 1.4115 1.0848 2.2115 2.7805 2.3715 5.0471.0115.1199-.08.2284-.2057.2341-.0057.0057-.0114.0057-.0171.0057Z" fill="#91B3FA"/>
  <path d="m89.4628 49.0857-6.5374-.8164.8457-3.3229-7.2289-2.2096 10.6119.5196-1.4 3.4313 3.7087 2.398ZM84.714 68.3152l-4.4059-3.1345 1.9144-2.0725-4.3602-4.4134 7.4632 4.5105-2.3544 1.9355 1.7429 3.1744ZM91.3259 8.81738l-5.1831 8.14732-2.5258-2.0896-4.8631 5.3326 4.7831-8.9467 2.3944 2.6149 5.3945-5.05852Z" fill="#29607D"/>
  <defs>
    <linearGradient id="a" x1="7.39084" y1="31.4135" x2="17.4844" y2="31.4135" gradientUnits="userSpaceOnUse">
      <stop offset=".0054054" stop-color="#D8DEE8"/>
      <stop offset="1" stop-color="#F4F7FA"/>
    </linearGradient>
    <linearGradient id="b" x1="6.62989" y1="35.1902" x2="16.7234" y2="35.1902" gradientUnits="userSpaceOnUse">
      <stop offset=".0054054" stop-color="#D8DEE8"/>
      <stop offset="1" stop-color="#F4F7FA"/>
    </linearGradient>
    <linearGradient id="c" x1="7.39085" y1="39.6132" x2="17.4844" y2="39.6132" gradientUnits="userSpaceOnUse">
      <stop offset=".0054054" stop-color="#D8DEE8"/>
      <stop offset="1" stop-color="#F4F7FA"/>
    </linearGradient>
    <linearGradient id="d" x1="8.19012" y1="44.5226" x2="18.2837" y2="44.5226" gradientUnits="userSpaceOnUse">
      <stop offset=".0054054" stop-color="#D8DEE8"/>
      <stop offset="1" stop-color="#F4F7FA"/>
    </linearGradient>
    <linearGradient id="e" x1="13.2264" y1="62.9408" x2="28.9559" y2="62.9408" gradientUnits="userSpaceOnUse">
      <stop offset=".0054054" stop-color="#D8DEE8"/>
      <stop offset="1" stop-color="#F4F7FA"/>
    </linearGradient>
    <linearGradient id="f" x1="11.4575" y1="50.723" x2="12.6572" y2="50.723" gradientUnits="userSpaceOnUse">
      <stop offset=".0054054" stop-color="#D8DEE8"/>
      <stop offset="1" stop-color="#F4F7FA"/>
    </linearGradient>
  </defs>
</svg>