<svg xmlns="http://www.w3.org/2000/svg" viewBox="0 0 90 79">
  <path d="M78.8737 67.9344c-2.334 2.1349-4.4246 3.3848-6.023 4.3306-15.5912 9.2363-33.4167 6.5761-38.9253 5.6635-8.8935-1.4657-16.3987-2.4999-22.842-7.6656C-3.56751 58.5266-2.85404 34.042 8.34017 18.8712 9.66202 17.0737 20.8452 2.37849 38.7039.309996c.437-.049777.7633-.077431 1.0509-.105085C42.5201-.0550337 59.6433-1.42113 73.6029 8.94902c1.9966 1.48228 5.2155 4.16468 8.1965 8.24638 10.9066 14.933 10.9454 38.0626-2.9257 50.739Z" fill="#F4F7FA"/>
  <path d="M44.1461 38.2674 27.4045 36.221V11.5263l16.7416-3.16912V38.2674Z" fill="#00A451"/>
  <path d="m64.5658 36.9622-20.4196 1.3052V8.35718l20.4196 2.82072v25.7843Z" fill="#008747"/>
  <path d="M51.8394 9.41919V21.6145l6.8028.542V10.3594l-6.8028-.94021Z" fill="#29607D"/>
  <path d="m71.8993 73.9463-31.0551 2.1846V30.6406l31.0551 2.1847v41.121Z" fill="#00A451"/>
  <path d="m40.8442 76.1309-25.458-3.1138V33.5443l25.458-2.9037v45.4903Z" fill="#008747"/>
  <path d="M51.8391 31.415v18.4561h10.4034v-17.726l-10.4034-.7301ZM85.3337 12.4556c0 7.0019-5.6413 13.0581-12.6267 13.5227-7.0074.4701-12.7041-4.8616-12.7041-11.9077 0-7.04618 5.6967-13.102343 12.7041-13.528209C79.6924.116524 85.3337 5.44815 85.3337 12.4556Z" fill="#29607D"/>
  <path d="M72.259 20.1431c-.5475.0332-1.0619-.2212-1.344-.6748l-4.773-7.6656c-.448-.719-.2046-1.7034.5365-2.19568.7467-.49223 1.709-.31525 2.157.40378l3.3129 5.3206 4.3693-8.89903c.3927-.79642 1.3329-1.16698 2.1017-.81855.7687.34844 1.0729 1.27208.6858 2.07403L73.6583 19.1918c-.26.5254-.7743.8905-1.344.9458-.0166 0-.0332.0055-.0553.0055Z" fill="#fff"/>
</svg>