<svg xmlns="http://www.w3.org/2000/svg" viewBox="0 0 32 40">
  <path d="M27.3333 40H4.66667c-1.23725-.0014-2.42341-.4935-3.29828-1.3684C.49353 37.7567.0014116 36.5706 0 35.3333V4.66667c.0014116-1.23725.49353-2.42341 1.36839-3.29828C2.24326.49353 3.42942.0014116 4.66667 0H27.3333c1.2373.0014116 2.4234.49353 3.2983 1.36839.8749.87487 1.367 2.06103 1.3684 3.29828V35.3333c-.0014 1.2373-.4935 2.4234-1.3684 3.2983-.8749.8749-2.061 1.367-3.2983 1.3684ZM4.66667 1.33333c-.88373.00106-1.73096.35259-2.35586.97748-.62489.6249-.97642 1.47213-.97748 2.35586V35.3333c.00106.8838.35259 1.731.97748 2.3559.6249.6249 1.47213.9764 2.35586.9775H27.3333c.8838-.0011 1.731-.3526 2.3559-.9775s.9764-1.4721.9775-2.3559V4.66667c-.0011-.88373-.3526-1.73096-.9775-2.35586-.6249-.62489-1.4721-.97642-2.3559-.97748H4.66667Z" fill="#fff"/>
  <path d="M18 37.3334h-4c-.5304 0-1.0391-.2107-1.4142-.5858-.3751-.375-.5858-.8838-.5858-1.4142v-2.6667c0-.5304.2107-1.0391.5858-1.4142.3751-.375.8838-.5858 1.4142-.5858h4c.5304 0 1.0391.2108 1.4142.5858.3751.3751.5858.8838.5858 1.4142v2.6667c0 .5304-.2107 1.0392-.5858 1.4142-.3751.3751-.8838.5858-1.4142.5858Zm-4-5.3333c-.1768 0-.3464.0702-.4714.1952-.125.1251-.1953.2946-.1953.4714v2.6667c0 .1768.0703.3464.1953.4714s.2946.1953.4714.1953h4c.1768 0 .3464-.0703.4714-.1953s.1953-.2946.1953-.4714v-2.6667c0-.1768-.0703-.3463-.1953-.4714-.125-.125-.2946-.1952-.4714-.1952h-4ZM8.66675 37.3334h-4c-.53043 0-1.03914-.2107-1.41422-.5858-.37507-.375-.58578-.8838-.58578-1.4142v-2.6667c0-.5304.21071-1.0391.58578-1.4142.37508-.375.88379-.5858 1.41422-.5858h4c.53043 0 1.03914.2108 1.41425.5858.375.3751.5857.8838.5857 1.4142v2.6667c0 .5304-.2107 1.0392-.5857 1.4142-.37511.3751-.88382.5858-1.41425.5858Zm-4-5.3333c-.17681 0-.34638.0702-.47141.1952-.12502.1251-.19526.2946-.19526.4714v2.6667c0 .1768.07024.3464.19526.4714.12503.125.2946.1953.47141.1953h4c.17681 0 .34638-.0703.4714-.1953.12503-.125.19527-.2946.19527-.4714v-2.6667c0-.1768-.07024-.3463-.19527-.4714-.12502-.125-.29459-.1952-.4714-.1952h-4ZM27.3333 37.3334h-4c-.5305 0-1.0392-.2107-1.4143-.5858-.375-.375-.5857-.8838-.5857-1.4142V24.6667c0-.5304.2107-1.0391.5857-1.4142.3751-.375.8838-.5858 1.4143-.5858h4c.5304 0 1.0391.2108 1.4142.5858.375.3751.5858.8838.5858 1.4142v10.6667c0 .5304-.2108 1.0392-.5858 1.4142-.3751.3751-.8838.5858-1.4142.5858Zm-4-13.3333c-.1769 0-.3464.0702-.4715.1952-.125.1251-.1952.2946-.1952.4714v10.6667c0 .1768.0702.3464.1952.4714.1251.125.2946.1953.4715.1953h4c.1768 0 .3463-.0703.4714-.1953.125-.125.1952-.2946.1952-.4714V24.6667c0-.1768-.0702-.3463-.1952-.4714-.1251-.125-.2946-.1952-.4714-.1952h-4ZM18 29.3334h-4c-.5304 0-1.0391-.2107-1.4142-.5858-.3751-.375-.5858-.8838-.5858-1.4142v-2.6667c0-.5304.2107-1.0391.5858-1.4142.3751-.375.8838-.5858 1.4142-.5858h4c.5304 0 1.0391.2108 1.4142.5858.3751.3751.5858.8838.5858 1.4142v2.6667c0 .5304-.2107 1.0392-.5858 1.4142-.3751.3751-.8838.5858-1.4142.5858Zm-4-5.3333c-.1768 0-.3464.0702-.4714.1952-.125.1251-.1953.2946-.1953.4714v2.6667c0 .1768.0703.3464.1953.4714s.2946.1953.4714.1953h4c.1768 0 .3464-.0703.4714-.1953s.1953-.2946.1953-.4714v-2.6667c0-.1768-.0703-.3463-.1953-.4714-.125-.125-.2946-.1952-.4714-.1952h-4ZM8.66675 29.3334h-4c-.53043 0-1.03914-.2107-1.41422-.5858-.37507-.375-.58578-.8838-.58578-1.4142v-2.6667c0-.5304.21071-1.0391.58578-1.4142.37508-.375.88379-.5858 1.41422-.5858h4c.53043 0 1.03914.2108 1.41425.5858.375.3751.5857.8838.5857 1.4142v2.6667c0 .5304-.2107 1.0392-.5857 1.4142-.37511.3751-.88382.5858-1.41425.5858Zm-4-5.3333c-.17681 0-.34638.0702-.47141.1952-.12502.1251-.19526.2946-.19526.4714v2.6667c0 .1768.07024.3464.19526.4714.12503.125.2946.1953.47141.1953h4c.17681 0 .34638-.0703.4714-.1953.12503-.125.19527-.2946.19527-.4714v-2.6667c0-.1768-.07024-.3463-.19527-.4714-.12502-.125-.29459-.1952-.4714-.1952h-4ZM18 21.3334h-4c-.5304 0-1.0391-.2107-1.4142-.5858-.3751-.375-.5858-.8838-.5858-1.4142v-2.6667c0-.5304.2107-1.0391.5858-1.4142.3751-.375.8838-.5858 1.4142-.5858h4c.5304 0 1.0391.2108 1.4142.5858.3751.3751.5858.8838.5858 1.4142v2.6667c0 .5304-.2107 1.0392-.5858 1.4142-.3751.3751-.8838.5858-1.4142.5858Zm-4-5.3333c-.1768 0-.3464.0702-.4714.1952-.125.1251-.1953.2946-.1953.4714v2.6667c0 .1768.0703.3464.1953.4714s.2946.1953.4714.1953h4c.1768 0 .3464-.0703.4714-.1953s.1953-.2946.1953-.4714v-2.6667c0-.1768-.0703-.3463-.1953-.4714-.125-.125-.2946-.1952-.4714-.1952h-4ZM8.66675 21.3334h-4c-.53043 0-1.03914-.2107-1.41422-.5858-.37507-.375-.58578-.8838-.58578-1.4142v-2.6667c0-.5304.21071-1.0391.58578-1.4142.37508-.375.88379-.5858 1.41422-.5858h4c.53043 0 1.03914.2108 1.41425.5858.375.3751.5857.8838.5857 1.4142v2.6667c0 .5304-.2107 1.0392-.5857 1.4142-.37511.3751-.88382.5858-1.41425.5858Zm-4-5.3333c-.17681 0-.34638.0702-.47141.1952-.12502.1251-.19526.2946-.19526.4714v2.6667c0 .1768.07024.3464.19526.4714.12503.125.2946.1953.47141.1953h4c.17681 0 .34638-.0703.4714-.1953.12503-.125.19527-.2946.19527-.4714v-2.6667c0-.1768-.07024-.3463-.19527-.4714-.12502-.125-.29459-.1952-.4714-.1952h-4ZM27.3333 21.3334h-4c-.5305 0-1.0392-.2107-1.4143-.5858-.375-.375-.5857-.8838-.5857-1.4142v-2.6667c0-.5304.2107-1.0391.5857-1.4142.3751-.375.8838-.5858 1.4143-.5858h4c.5304 0 1.0391.2108 1.4142.5858.375.3751.5858.8838.5858 1.4142v2.6667c0 .5304-.2108 1.0392-.5858 1.4142-.3751.3751-.8838.5858-1.4142.5858Zm-4-5.3333c-.1769 0-.3464.0702-.4715.1952-.125.1251-.1952.2946-.1952.4714v2.6667c0 .1768.0702.3464.1952.4714.1251.125.2946.1953.4715.1953h4c.1768 0 .3463-.0703.4714-.1953.125-.125.1952-.2946.1952-.4714v-2.6667c0-.1768-.0702-.3463-.1952-.4714-.1251-.125-.2946-.1952-.4714-.1952h-4ZM27.3334 12.0001H4.66675c-.53043 0-1.03914-.2107-1.41422-.5858-.37507-.3751-.58578-.8838-.58578-1.4142V4.66675c0-.53044.21071-1.03914.58578-1.41422.37508-.37507.88379-.58578 1.41422-.58578H27.3334c.5304 0 1.0392.21071 1.4142.58578.3751.37508.5858.88378.5858 1.41422v5.33335c0 .5304-.2107 1.0391-.5858 1.4142-.375.3751-.8838.5858-1.4142.5858ZM4.66675 4.00008c-.17681 0-.34638.07024-.47141.19526-.12502.12503-.19526.2946-.19526.47141v5.33335c0 .1768.07024.3464.19526.4714.12503.125.2946.1952.47141.1952H27.3334c.1768 0 .3464-.0702.4714-.1952s.1953-.2946.1953-.4714V4.66675c0-.17681-.0703-.34638-.1953-.47141-.125-.12502-.2946-.19526-.4714-.19526H4.66675Z" fill="#fff"/>
  <path d="M25.3333 10.0001c-.5305 0-1.0392-.21073-1.4143-.58581-.375-.37507-.5857-.88378-.5857-1.41421V6.66675c0-.53044.2107-1.03914.5857-1.41422.3751-.37507.8838-.58578 1.4143-.58578.5304 0 1.0391.21071 1.4142.58578.375.37508.5858.88378.5858 1.41422v1.33333c0 .53043-.2108 1.03914-.5858 1.41421-.3751.37508-.8838.58581-1.4142.58581Zm0-4.00002c-.1769 0-.3464.07024-.4715.19526-.125.12503-.1952.2946-.1952.47141v1.33333c0 .17681.0702.34638.1952.47141.1251.12502.2946.19526.4715.19526.1768 0 .3463-.07024.4714-.19526.125-.12503.1952-.2946.1952-.47141V6.66675c0-.17681-.0702-.34638-.1952-.47141-.1251-.12502-.2946-.19526-.4714-.19526Z" fill="#fff"/>
</svg>