<svg xmlns="http://www.w3.org/2000/svg" viewBox="0 0 355 172">
  <path d="M344.121 171.043H2.76114c-4.56888-10.894-2.175659-26.582 5.43913-35.515 7.61483-8.934 20.66873-13.073 31.98213-10.241-13.0539-22.442-8.0499-53.8179 11.3134-71.0309 19.3633-17.2131 51.1282-18.5204 71.7962-2.8326-3.698-17.213 13.925-30.9399 29.589-38.7838 19.364-9.58703 42.208-17.64884 62.006-8.71548 23.933 10.89438 31.33 41.39848 30.677 67.54488 11.749-10.4586 30.894-11.3301 43.731-2.1789 12.836 9.1513 18.058 27.6717 11.966 42.0518 14.794-6.754 33.94-3.05 45.036 8.934 11.096 11.984 10.878 35.951 3.046 50.332h-5.222v.435Z" fill="#fff"/>
</svg>