<svg xmlns="http://www.w3.org/2000/svg" viewBox="0 0 160 78">
  <path d="M154.948 77.931H.989361C-.959482 73.0803.0149396 66.0952 3.52286 62.0206c3.50791-4.0746 9.35444-5.8209 14.42144-4.6567-5.8465-10.0896-3.7028-24.2538 5.067-31.8209 8.7698-7.7612 22.9963-8.3433 32.3508-1.1642-1.754-7.7612 5.8465-17.85074 12.8623-21.34328 8.7698-4.26866 19.4885-3.880598 28.4532.19403C107.396 8.0803 110.904 21.8564 110.514 33.4982c5.262-4.6567 14.032-5.0448 19.684-.9701 5.846 4.0746 8.185 12.4179 5.456 18.8209 6.626-3.1045 15.201-1.3583 20.268 4.0746 5.067 5.4328 4.872 16.1045 1.365 22.5074h-2.339Z" fill="#fff"/>
</svg>