<svg xmlns="http://www.w3.org/2000/svg" viewBox="0 0 706 631">
  <path d="M655.089 430.544c-.652-1.525-.87-2.832-.87-4.14 0-1.307 0-2.396.435-3.704.218-1.089.871-2.178 1.523-3.268.653-1.089 1.523-1.961 2.829-2.832 2.61-1.526 5.874-.654 7.397 1.743 0 .218.217.435.217.435.653 1.526.871 2.833.871 3.922 0 1.308-.218 2.397-.653 3.487-.435 1.089-.87 2.178-1.741 3.268-.652 1.089-1.74 1.961-3.045 2.832-2.394 1.308-5.44.654-6.745-1.743-.218.218-.218.218-.218 0ZM666.838 394.375c-.87-1.089-1.305-1.961-1.74-2.832-.218-.872-.435-1.744-.218-2.615 0-.872.435-1.743.87-2.397.436-.871 1.088-1.525 2.394-2.179 2.61-1.525 5.874-.871 7.832 1.308.87 1.089 1.305 1.961 1.523 2.832.217.872.217 1.743 0 2.615-.218.871-.435 1.525-1.088 2.397-.653.871-1.305 1.525-2.393 2.178-2.176 1.308-5.222.654-7.18-1.307ZM680.762 407.884c-.653-1.525-.653-2.833-.653-4.14 0-1.307.218-2.397.653-3.704.435-1.089.87-2.179 1.741-3.268.87-1.09 1.74-1.961 3.046-2.615 2.61-1.307 5.874-.436 7.179 2.397 0 .218.218.436.218.653.652 1.526.652 2.833.435 4.14 0 1.308-.435 2.397-.87 3.487-.436 1.089-1.088 2.178-1.959 3.05-.87.871-1.74 1.961-3.263 2.615-2.393 1.307-5.439.217-6.527-2.179.218 0 .218-.218 0-.436ZM13.489 253.62c1.523.654 2.3932 1.525 3.2635 2.615.8703.871 1.523 1.961 1.9581 3.05.4351 1.09.8703 2.179.8703 3.486.2175 1.308 0 2.615-.4352 4.14-1.0878 2.833-4.1337 4.358-6.9621 3.269-.2175 0-.4351-.218-.4351-.218-1.523-.654-2.39322-1.525-3.26348-2.615-.87026-.871-1.3054-1.961-1.74053-3.05-.43513-1.09-.65269-2.397-.65269-3.487 0-1.307 0-2.614.65269-4.139.87027-2.615 3.69861-3.922 6.30941-3.051.2176-.218.4351 0 .4351 0ZM27.1955 289.136c1.3054.218 2.1757.653 3.0459 1.089.8703.436 1.3054 1.09 1.7406 1.961.4351.654.8702 1.525.8702 2.397 0 .872 0 1.961-.4351 3.268-1.0878 2.833-4.1337 4.358-6.9621 3.922-1.3054-.218-2.1756-.653-3.0459-1.307-.6527-.654-1.3054-1.307-1.7405-1.961-.4352-.654-.6527-1.525-.6527-2.615 0-.871 0-1.961.6527-3.268 1.0878-2.397 3.6986-3.704 6.5269-3.486ZM7.83236 287.393c1.30539.871 2.39324 1.743 3.04594 2.832.8702 1.09 1.3054 2.179 1.7405 3.268.4351 1.09.6527 2.397.6527 3.487 0 1.307 0 2.614-.6527 4.14-1.0878 2.614-4.35131 3.922-6.9621 2.832-.21756 0-.43513-.218-.65269-.218-1.3054-.871-2.17566-1.743-3.04592-2.832-.6527-1.09-1.305394-2.179-1.522959-3.269C.217565 296.326 0 295.237 0 293.929c0-1.307.217565-2.614.870262-4.14 1.087828-2.396 3.916178-3.704 6.526968-2.614.21756.218.21756.218.43513.218ZM495.396 56.4326c-1.523-.2179-2.828-.6537-3.916-1.3074-1.088-.6536-1.958-1.3073-2.828-2.1788-.87-.8716-1.523-1.961-1.958-3.0504-.435-1.0895-.871-2.3968-.871-3.922 0-3.0504 2.394-5.4472 5.44-5.2293h.652c1.523.2179 2.829.6537 3.917 1.3073 1.087.6537 1.958 1.5252 2.61 2.3968.653.8715 1.306 1.961 1.958 3.0504.436 1.0894.871 2.3968.871 4.1399 0 2.8325-2.394 5.0114-5.004 4.7935h-.871ZM471.029 27.018c-1.305.2179-2.393.2179-3.263 0-.871-.2179-1.741-.6537-2.394-1.0895-.652-.4357-1.305-1.0894-1.523-1.9609-.435-.8716-.652-1.7431-.652-3.0504.217-3.0505 2.393-5.4472 5.221-6.1009 1.306-.2179 2.394 0 3.264.2179.87.2179 1.523.6537 2.176 1.3073.652.6537 1.087 1.3074 1.522 2.1789.436.8715.653 1.961.436 3.2683 0 2.3968-2.176 4.7935-4.787 5.2293ZM489.957 22.4422c-1.523-.2179-2.828-.8716-3.916-1.7431-1.088-.6537-1.958-1.5252-2.611-2.6146-.87-.8716-1.305-1.961-1.74-3.2684-.435-1.0894-.653-2.3967-.653-4.1398.218-3.05041 2.828-5.22928 5.874-5.0114h.653c1.523.21789 2.828.87155 3.699 1.7431 1.087.65366 1.74 1.74309 2.61 2.6146.653 1.0895 1.306 2.1789 1.741 3.2683.435 1.3074.653 2.6147.435 4.1399-.217 2.6146-2.611 4.7935-5.221 4.5756-.436.4358-.653.4358-.871.4358ZM140.33 0s43.73 61.2262 0 84.7579V0ZM140.33 0s-43.731 61.2262 0 84.7579V0Z" fill="#029759"/>
  <path d="M140.33 28.3252v87.8088M150.12 37.2588l-9.79 10.8943-9.573-10.8943M150.12 51.4214l-9.79 10.8943-9.573-10.8943" fill="transparent" stroke="#00DA7F" stroke-width=".8275" stroke-miterlimit="10" stroke-linecap="round" stroke-linejoin="round"/>
  <path d="M86.8083 29.1968s43.7307 61.2262 0 84.7582V29.1968Z" fill="#029759"/>
  <path d="M86.8084 29.1968s-43.7306 61.2262 0 84.7582V29.1968Z" fill="#029759"/>
  <path d="M86.8083 57.522v87.808M96.3814 66.4556l-9.5729 10.8943-9.7904-10.8943M96.3814 80.6182l-9.5729 10.8943-9.7904-10.8943" fill="transparent" stroke="#00DA7F" stroke-width=".8275" stroke-miterlimit="10" stroke-linecap="round" stroke-linejoin="round"/>
  <path d="M677.934 178.885s43.731 61.226 0 84.758v-84.758ZM677.934 178.885s-43.731 61.226 0 84.758v-84.758Z" fill="#029759"/>
  <path d="M677.934 207.21v87.809M687.507 216.144l-9.573 10.894-9.79-10.894M687.507 230.307l-9.573 10.894-9.79-10.894" fill="transparent" stroke="#00DA7F" stroke-width=".8275" stroke-miterlimit="10" stroke-linecap="round" stroke-linejoin="round"/>
  <path d="M625.501 128.553s43.731 61.226 0 84.758v-84.758ZM625.501 128.553s-43.731 61.226 0 84.758v-84.758Z" fill="#029759"/>
  <path d="M625.501 157.096v87.591M635.291 165.812l-9.79 11.112-9.791-11.112M635.291 179.975l-9.79 11.112-9.791-11.112" fill="transparent" stroke="#00DA7F" stroke-width=".8275" stroke-miterlimit="10" stroke-linecap="round" stroke-linejoin="round"/>
  <path d="m466.243 284.125 99.209-66.238 49.17 81.49s34.376 45.974 20.016 90.858c-14.359 45.103-61.136 65.366-83.545 66.02l-84.85-172.13ZM177.968 258.632l62.007 119.402-40.685-23.314-23.932 37.694s-13.707 31.376 23.279 44.013c0 0-145.5512 13.727-151.8606-77.785 0 0-.6527-45.321 30.6767-71.685l-38.0739-28.325H177.968ZM240.192 35.0803s-29.589-5.6651-64.617 57.0863c-35.028 62.7514-58.742 98.7024-58.742 98.7024l138.589 77.35L381.827 80.4007c-.217-.2179-53.956-49.2424-141.635-45.3204Z" fill="#00844D"/>
  <path d="M695.121 344.043h-341.36c-4.569-10.894-2.176-26.582 5.439-35.515 7.615-8.934 20.669-13.073 31.982-10.241-13.054-22.442-8.05-53.818 11.314-71.031 19.363-17.213 51.128-18.52 71.796-2.832-3.698-17.214 13.925-30.94 29.589-38.784 19.364-9.587 42.208-17.649 62.006-8.716 23.933 10.895 31.33 41.399 30.677 67.545 11.749-10.458 30.894-11.33 43.731-2.179 12.836 9.151 18.058 27.672 11.966 42.052 14.794-6.754 33.94-3.05 45.036 8.934 11.096 11.984 10.878 35.951 3.046 50.332h-5.222v.435ZM276.526 224.86H30.0238c-3.2634-7.844-1.5229-19.174 3.9162-25.711 5.6567-6.537 14.7945-9.369 23.062-7.408-9.5729-16.124-5.8743-39.002 8.2675-51.421 14.1417-12.42 36.9865-13.292 51.9985-1.961-2.611-12.42 10.008-22.225 21.539-27.89 13.924-6.972 30.676-12.6374 44.818-6.319 17.188 7.844 22.627 29.851 22.192 48.807 8.485-7.408 22.409-8.062 31.547-1.525 9.138 6.536 13.054 19.827 8.702 30.504 10.661-5.012 24.368-2.179 32.418 6.536 8.05 8.716 7.832 25.929 2.175 36.388h-4.133Z" fill="#fff"/>
  <path opacity=".35" d="M341.36 558.88c129.53 0 234.536-105.16 234.536-234.882S470.89 89.1162 341.36 89.1162 106.824 194.276 106.824 323.998c0 129.722 105.006 234.882 234.536 234.882Z" fill="#017C45"/>
  <path opacity=".3" d="M539.99 356.158c17.806-109.874-56.699-213.401-166.412-231.233-109.712-17.832-213.086 56.784-230.892 166.658-17.805 109.875 56.7 213.401 166.412 231.233 109.713 17.832 213.087-56.783 230.892-166.658Z" fill="#017C45"/>
  <path d="M382.496 497.236c92.91-22.749 149.814-116.621 127.098-209.669-22.716-93.048-116.449-150.036-209.36-127.286-92.91 22.749-149.814 116.621-127.098 209.669 22.716 93.048 116.45 150.035 209.36 127.286Z" fill="#365F7A"/>
  <path opacity=".34" d="M353.326 155.571c-3.698.654-1.523 10.023 1.523 12.42 3.046 2.397 6.962 3.05 10.661 4.14 3.698 1.089 7.615 3.05 8.92 6.536.87 2.397.435 5.23 1.741 7.408 3.263 5.448 13.924 1.961 16.317 7.626 1.088 2.615-.218 5.883 1.523 8.062 1.088 1.743 3.481 2.179 4.786 3.922 3.046 4.358-3.481 8.716-6.527 12.856-3.045 4.139-2.61 10.458.871 14.162 3.916 4.14 10.443 4.576 16.1 5.883 5.656 1.307 11.966 5.011 11.748 10.894-.218 4.794-4.786 8.28-5.657 12.856-1.74 9.587 12.402 17.866 8.485 26.582-.87 1.743-2.175 3.05-3.263 4.793-5.004 7.409-1.958 17.213 1.523 25.493 3.481 8.062 7.615 17.213 4.134 25.493-1.306 3.486-3.917 6.101-5.657 9.369-4.787 8.933-2.828 20.046.87 29.633 3.916 10.24 11.966 21.57 23.062 20.263 3.699-.436 6.962-2.179 10.661-2.615 3.698-.435 8.05.654 9.138 4.14.435 1.526.217 3.051 0 4.358-.871 7.408-2.176 15.034-6.963 20.699-2.828 3.269-6.962 5.447-10.008 8.716-3.263 3.05-5.656 7.844-3.916 11.984.653 1.743 1.958 3.486 1.306 5.229-.435 1.089-1.523 1.525-2.611 2.179-14.142 6.972-28.284 14.162-42.425 21.135-4.134 2.179-10.008 3.704-12.837 0-3.046-3.922.871-9.369 4.134-13.073 5.222-5.883 9.138-13.292 9.79-21.136.653-7.843-2.61-16.341-9.137-20.699-7.398-4.793-16.753-3.704-25.673-3.268-8.703.436-18.928-.436-24.15-7.408-2.175-3.051-3.481-6.755-6.309-9.151-7.397-5.883-18.058 2.396-27.631 1.089s-16.317-12.855-26.108-12.42c-6.309.218-11.096 5.23-16.317 8.498-5.439 3.268-13.924 3.922-16.318-1.961-1.088-2.615-.435-5.665-1.74-8.28-2.829-5.229-11.749-3.704-15.23-8.497-1.305-1.961-1.523-4.576-2.611-6.537-2.393-3.922-7.614-4.575-12.183-5.447-4.569-.872-9.791-3.268-10.008-7.844 0-4.576 5.656-7.408 10.008-6.319 4.569.872 8.05 4.14 11.748 6.755 5.657 3.704 12.619 6.319 19.146 4.793 6.527-1.525 12.401-7.844 11.531-14.598-1.088-7.19-8.92-12.638-8.267-19.828.652-8.062 10.443-11.33 16.97-16.341 8.267-6.319 11.531-18.085 8.05-27.89-.653-1.961-1.741-3.922-1.741-5.883-.218-6.101 6.527-9.369 11.531-12.637 6.527-4.358 11.749-11.112 12.619-18.956.652-7.844-3.916-16.342-11.314-18.521 3.699-4.575.653-11.983-4.351-15.034-5.004-3.05-11.313-2.832-17.188-2.614-7.179.217-14.794.653-20.668 4.793-5.657 3.922-11.096 11.548-17.623 9.369-2.176-.871-3.916-2.614-5.222-4.575-4.569-6.101-7.832-13.074-9.355-20.482 0 0-65.487 54.472-49.605 153.392 15.665 98.703 94.424 165.376 200.378 147.946 105.954-17.649 137.936-72.121 153.601-131.604 15.665-60.137-25.02-244.033-164.262-219.848Z" fill="#365F7A"/>
  <path d="M199.29 229.217c10.878-2.615 23.715 3.486 28.936 13.509 1.523 3.051 2.611 6.537 4.787 9.151 2.175 2.615 6.527 3.922 9.138 1.743 1.958-1.743 2.393-4.793 2.175-7.408-.217-3.704-.653-7.626 0-11.33.653-3.704 3.046-7.408 6.745-8.497 3.916-1.09 8.05 1.307 12.183 1.089 3.481 0 6.527-1.961 10.008-2.397 3.264-.653 7.615.872 8.268 4.14.435 2.615-1.523 5.012-.87 7.626 1.305 5.012 10.008 3.051 12.836 7.408 2.611 3.922-1.958 8.498-6.092 11.113-8.485 5.229-16.752 10.458-25.237 15.687 3.698 2.179 8.049 5.665 6.744 9.805-.653 2.179-2.828 3.486-4.351 5.23-4.352 4.575-4.569 11.548-7.397 17.213-3.917 8.061-12.619 12.637-16.535 20.699-3.699 7.19-2.394 16.559 2.828 22.66 1.088 1.307 2.611 2.615 3.046 4.358.435 1.743-.87 3.922-2.611 3.704-.87 0-1.523-.654-2.176-1.307-7.614-6.101-18.058-6.537-27.848-6.319-3.046 0-5.874 0-8.703 1.089-6.527 2.833-9.137 10.895-8.92 17.867 0 8.062 2.176 15.906 6.527 22.878.87 1.525 1.958 2.833 3.481 3.486 1.523.654 3.699 0 4.134-1.525-.435-3.704 2.393-7.408 5.874-8.062 3.699-.435 7.397 2.179 8.05 5.883.435 3.051-.87 6.101.218 8.934 2.393 5.447 11.313 2.614 16.317 5.883 5.222 3.268 4.134 11.112 7.615 16.341 3.481 5.447 12.184 6.101 16.752 1.525 1.306-1.307 2.176-3.05 3.699-4.14 3.481-2.832 9.573-1.961 11.749 2.179 3.698-3.268 8.267-6.536 13.271-6.101 8.05.654 13.054 10.241 20.886 11.331 3.917.653 8.05-1.09 11.966-.436 8.921 1.525 13.272 13.727 22.41 14.38 5.874.654 12.401-3.922 17.187-.435 2.176 1.525 3.264 4.357 5.875 5.229 1.523.653 3.481.218 5.221.436 3.264.435 6.31 3.268 6.745 6.536.435 3.268-1.741 6.755-4.787 8.062-6.744 2.615-10.008 13.073-7.832 20.046.87 2.614 2.393 5.447 1.305 8.061-1.305 3.704-6.091 4.14-9.79 5.23-4.134 1.307-8.92 6.754-8.268 6.318 0 0-1.523 2.615-1.958 5.23 0 0-23.062 1.525-40.684-2.397.87-3.704-1.088-9.151-4.134-11.548-3.046-2.397-6.962-3.486-10.661-4.576-9.573-2.832-19.581-6.318-25.89-14.162-6.527-8.28-7.615-19.61-8.268-30.069-.217-2.614-.435-5.883-2.61-7.408-2.611-1.961-6.092-.654-9.356-1.307-3.263-.654-5.874-3.268-8.05-5.665-6.309-6.537-13.054-13.509-21.756-15.688-3.046-.872-6.31-1.089-8.92-2.833-2.176-1.525-3.699-3.922-6.092-5.011-4.134-2.179-9.573-.218-13.272-3.05-1.74-1.308-2.611-3.704-3.481-5.665-2.175-4.794-5.656-8.934-10.008-11.984 0 0-2.611-1.525-4.351-3.051 0 0-10.878-32.465-8.05-61.88 3.046-29.414 10.443-61.008 30.024-84.975l1.958-2.833ZM505.622 261.9c5.004 8.28 8.703 32.465 8.703 32.465 6.962 30.504 5.221 54.472-5.439 91.077-10.661 36.605-43.296 63.84-43.296 63.84-5.222-9.587.218-17.866 5.874-23.096 2.176-1.961 4.787-3.704 5.439-6.536.653-2.397-.435-5.012-.87-7.408-1.523-10.677 10.661-19.174 10.661-29.851 0-1.743-.218-3.486-1.305-5.011-2.394-3.269-7.18-3.051-11.314-2.615-8.267 1.09-18.058 3.051-21.539 10.677-.435 1.089-.87 2.396-1.74 3.268-2.829 2.832-7.833 0-9.356-3.922-1.523-3.704-1.305-8.062-3.698-11.33-2.611-3.922-8.703-7.19-6.962-11.548 1.087-2.833 5.221-3.922 5.439-6.973.217-1.307-.435-2.614-.653-3.704-.653-3.486.87-7.19 1.958-10.676 2.828-8.716 2.393-18.303-1.088-26.8-2.175-5.229-5.656-10.677-4.134-16.124.871-3.05 2.829-5.447 3.699-8.279 1.088-3.705-.217-7.626-1.523-11.113-1.305-3.486-3.046-7.19-2.828-10.894.217-3.704 2.611-7.844 6.309-8.28 2.611-.218 5.004 1.09 7.397 2.397 10.226 5.665 23.062 8.28 33.506 2.833 3.481-1.744 6.526-4.358 10.008-5.665 3.698-1.308 9.137-1.744 11.313 1.525l5.439 1.743ZM361.594 156.661c-1.958 4.793 3.046 8.28 6.744 9.587 4.134 1.307 9.138 1.525 12.184 4.793 2.176 2.397 2.611 5.883 4.569 8.716 5.439 7.626 18.275 3.704 26.108 9.151 1.523 1.09 2.828 2.833 2.393 4.576-.435 1.307-1.741 2.179-2.393 3.486-3.264 5.447 6.962 11.548 4.786 17.649-1.74 4.793-9.355 3.704-13.054 7.408-.652.654-1.088 1.307-1.088 2.179 0 1.525 1.741 2.397 3.264 3.05 8.92 2.833 18.058 5.23 27.196 7.19 2.828.654 5.874 1.526 6.962 3.922 1.958 4.576-3.699 10.241-.871 14.163 1.306 1.961 4.134 2.179 6.527 1.525 2.176-.871 3.917-2.396 5.875-3.922 10.66-8.497 26.543-11.548 39.814-8.497 0 0-25.455-57.522-90.29-78.657 0-.654-27.413-6.755-38.726-6.319Z" fill="#10BC6F"/>
  <path opacity=".43" d="M221.264 229.435c2.829 2.615 3.264 6.972 2.393 10.676-.87 3.705-3.698 6.755-5.004 10.241-5.004 12.855-9.355 22.878-11.095 35.516-1.088 8.279-2.829 17.431-7.615 24.403-1.088 1.525-2.611 3.05-4.569 3.704-3.481 1.089-7.18-1.743-8.485-5.011-1.306-3.269-.87-7.191-.435-10.677 2.828-20.045 8.485-39.655 16.752-57.958 1.958-4.575 4.569-9.369 9.356-11.112-.218 0 5.874-2.397 8.702.218ZM234.971 203.942c3.046-.436 6.309 1.743 7.397 4.793.653 2.397 0 5.012-1.305 7.191-1.306 2.179-3.481 3.704-5.44 5.229-1.523 1.089-3.263 2.179-5.221 2.832-1.958.436-4.134.218-5.657-1.089-.653-.436-1.088-1.307-1.523-1.961-1.74-3.704-.87-8.498 1.741-11.766 2.61-3.268 6.744-5.011 10.878-5.665" fill="#fff"/>
  <path d="M47.2117 361.475s-7.8324 38.348 25.4552 86.719l46.9941 89.333s21.757 48.371 55.697 50.332h147.509v-150.56l-124.23-.653c.218-.436-136.6308 14.598-151.4253-75.171ZM240.192 35.0801s55.914 9.3691 90.943 60.3546c35.028 50.7673 58.307 93.4733 58.307 93.4733l-38.944 22.007 142.07 11.983 58.525-130.0779-40.032 22.0069-30.024-49.0249s-21.756-30.0684-58.525-33.3367c-36.769-3.0504-182.32 2.6147-182.32 2.6147ZM635.073 343.172c2.394 17.867 1.306 39.873-18.928 62.315 0 0-37.856 37.041-68.098 40.31l-30.459 3.268-84.85-4.358v-39.22l-71.797 112.212L432.738 631v-46.845h48.952s46.31 0 66.357-33.773l22.845-41.398 39.161-62.098 14.142-22.878c-.217 0 27.631-42.488 10.878-80.836Z" fill="#00A059"/>
</svg>