<svg xmlns="http://www.w3.org/2000/svg" viewBox="0 0 866 94">
  <path d="M151.861 65.7333c-1.122-.1417-2.083-.4252-2.884-.8504-.802-.4252-1.443-.8504-2.083-1.4173-.641-.5669-1.122-1.2755-1.443-1.9842-.32-.7087-.64-1.559-.64-2.5511 0-1.9843 1.762-3.5433 4.005-3.4016h.481c1.122.1418 2.083.4252 2.884.8504.801.4252 1.442.9921 1.923 1.559.481.567.961 1.2756 1.442 1.9843.321.7086.641 1.559.641 2.6928 0 1.8425-1.763 3.2598-3.685 3.1181h-.641ZM133.915 46.5997c-.962.1418-1.763.1418-2.404 0-.641-.1417-1.282-.4252-1.762-.7086-.481-.2835-.962-.7087-1.122-1.2756-.32-.5669-.481-1.1338-.481-1.9842.161-1.9842 1.763-3.5433 3.846-3.9685.961-.1417 1.763 0 2.404.1418.64.1417 1.121.4252 1.602.8503.481.4252.801.8504 1.121 1.4173.321.567.481 1.2756.321 2.126 0 1.559-1.602 3.1181-3.525 3.4015ZM147.855 43.6233c-1.122-.1417-2.083-.5669-2.884-1.1338-.801-.4252-1.442-.9921-1.923-1.7008-.641-.5669-.961-1.2756-1.282-2.126-.32-.7086-.48-1.559-.48-2.6928.16-1.9843 2.083-3.4016 4.326-3.2598h.481c1.121.1417 2.083.5669 2.724 1.1338.801.4252 1.281 1.1339 1.922 1.7008.481.7086.962 1.4173 1.282 2.1259.321.8504.481 1.7008.321 2.6929-.161 1.7008-1.923 3.1181-3.846 2.9763-.32.2835-.481.2835-.641.2835ZM381.269 62.7106c-.467-.9117-.713-1.7802-.737-2.6055-.024-.8252.037-1.5311.235-2.3131.197-.782.615-1.5207 1.12-2.1401.505-.6194 1.145-1.3148 2.092-1.8477 1.895-1.0657 4.331-.5898 5.4 1.1576.087.1194.173.2388.259.3581.467.9118.712 1.7803.736 2.6055.025.8253-.172 1.6073-.456 2.2699-.283.6626-.702 1.4014-1.12 2.1401-.505.6194-1.145 1.3148-2.228 1.9238-1.76.9896-4.06.4376-4.957-1.071l-.344-.4776ZM389.904 39.0643c-.652-.6402-1.082-1.237-1.291-1.7907-.209-.5536-.282-1.1834-.27-1.6937.013-.5104.161-1.0969.616-1.5208.369-.5432.825-.9671 1.637-1.4238 1.981-.9463 4.331-.5898 5.855.7337.652.6402.947 1.3132 1.156 1.8668.209.5536.196 1.064.048 1.6505-.148.5865-.382 1.0536-.751 1.5969-.369.5432-.96 1.0432-1.858 1.3805-1.489.8373-3.839.4809-5.142-.7994ZM400.233 47.8516c-.467-.9118-.577-1.8564-.466-2.7578-.024-.8253.173-1.6072.592-2.346.197-.782.702-1.4013 1.342-2.0968.505-.6194 1.231-1.1954 2.314-1.8044 1.981-.9463 4.367-.275 5.436 1.4724.086.1194.173.2388.259.3581.467.9118.577 1.8564.38 2.6384.024.8253-.395 1.564-.592 2.346-.419.7387-.837 1.4775-1.342 2.0968-.64.6955-1.366 1.2716-2.4 1.6851-1.71.794-4.01.2421-4.908-1.2666-.442-.0865-.528-.2059-.615-.3252ZM774.108 38.3365c-.166.99-.492 1.8377-.977 2.5431-.486.7055-.97 1.2694-1.616 1.8327-.645.5632-1.449.9843-2.253 1.2638-.804.2795-1.769.5582-2.892.5533-2.246-.0099-4.003-1.5745-3.831-3.555.001-.1415.002-.2831.002-.4246.166-.9899.492-1.8376.978-2.5431.485-.7055 1.13-1.2687 1.774-1.6904.645-.4218 1.449-.8428 2.254-1.2638.804-.2795 1.768-.5583 3.052-.5526 2.086.0092 3.682 1.573 3.512 3.2705-.002.4246-.002.4246-.003.5661ZM752.355 54.091c.156.8498.152 1.5574-.012 2.1228-.164.5654-.488 1.13-.811 1.5532-.323.4231-.807.8456-1.45.9842-.643.2802-1.286.4189-2.249.4147-2.246-.1515-4.003-1.5745-4.474-3.4163-.155-.8499.009-1.5568.173-2.1221.164-.5654.487-.9885.971-1.411.483-.4224.966-.7033 1.61-.9835.643-.2802 1.447-.4182 2.409-.2724 1.765.0078 3.522 1.4308 3.833 3.1304ZM749.055 41.7641c-.166.9899-.652 1.8369-1.298 2.5416-.486.7055-1.131 1.2687-1.936 1.6898-.645.5632-1.449.8427-2.413 1.1215-.804.2795-1.767.4167-3.051.4111-2.246-.1515-3.841-1.8568-3.669-3.8373.001-.1416.001-.2831.002-.4246.166-.9899.652-1.8369 1.297-2.4002.486-.7054 1.291-1.1264 1.936-1.6897.804-.421 1.609-.842 2.413-1.1215.964-.2788 1.928-.4161 3.051-.2696 1.924.15 3.52 1.7138 3.35 3.4113.319.2845.319.426.318.5676ZM246.303 17.7393s32.207 39.8262 0 55.133v-55.133Z" fill="#029759"/>
  <path d="M246.304 17.7393s-32.207 39.8262 0 55.133v-55.133Z" fill="#029759"/>
  <path d="M246.303 36.1642v57.1173" stroke="url(#a)" stroke-width=".8275" stroke-miterlimit="10" stroke-linecap="round" stroke-linejoin="round"/>
  <path d="m253.354 41.9753-7.05 7.0866-7.211-7.0866M253.354 51.1877l-7.05 7.0866-7.211-7.0866" stroke="#00DA7F" stroke-width=".8275" stroke-miterlimit="10" stroke-linecap="round" stroke-linejoin="round"/>
  <path d="M851.686 17.7393s32.206 39.8262 0 55.133v-55.133ZM851.686 17.7393s-32.206 39.8262 0 55.133v-55.133Z" fill="#029759"/>
  <path d="M851.686 36.1642v57.1173" stroke="url(#b)" stroke-width=".8275" stroke-miterlimit="10" stroke-linecap="round" stroke-linejoin="round"/>
  <path d="m858.736 41.9753-7.05 7.0866-7.21-7.0866M858.736 51.1877l-7.05 7.0866-7.21-7.0866" stroke="#00DA7F" stroke-width=".8275" stroke-miterlimit="10" stroke-linecap="round" stroke-linejoin="round"/>
  <path d="M521.514 35.9525s24.442 30.2241 0 41.8405V35.9525ZM521.514 35.9525s-24.442 30.2241 0 41.8405V35.9525Z" fill="#029759"/>
  <path d="M521.514 49.9351v43.3463" stroke="url(#c)" stroke-width=".8275" stroke-miterlimit="10" stroke-linecap="round" stroke-linejoin="round"/>
  <path d="m526.865 54.3451-5.351 5.378-5.472-5.378M526.865 61.3364l-5.351 5.378-5.472-5.378" stroke="#00DA7F" stroke-width=".8275" stroke-miterlimit="10" stroke-linecap="round" stroke-linejoin="round"/>
  <path d="M626.004 0s39.77 49.1788 0 68.0803V0ZM626.004 0s-39.77 49.1788 0 68.0803V0Z" fill="#029759"/>
  <path d="M626.004 22.7518v70.5305" stroke="url(#d)" stroke-width=".8275" stroke-miterlimit="10" stroke-linecap="round" stroke-linejoin="round"/>
  <path d="m634.71 29.9275-8.706 8.7507-8.904-8.7507M634.71 41.3033l-8.706 8.7508-8.904-8.7508" stroke="#00DA7F" stroke-width=".8275" stroke-miterlimit="10" stroke-linecap="round" stroke-linejoin="round"/>
  <path d="M16.9387 3.88623s38.1127 47.12957 0 65.24337V3.88623Z" fill="#029759"/>
  <path d="M16.9389 3.88623s-38.1126 47.12957 0 65.24337V3.88623Z" fill="#029759"/>
  <path d="M16.9387 25.8578v67.4237" stroke="url(#e)" stroke-width=".8275" stroke-miterlimit="10" stroke-linecap="round" stroke-linejoin="round"/>
  <path d="m25.4716 32.5668-8.5327 8.5537-8.53265-8.5537M25.4716 43.4685l-8.5327 8.5538-8.53265-8.5538" stroke="#00DA7F" stroke-width=".8275" stroke-miterlimit="10" stroke-linecap="round" stroke-linejoin="round"/>
  <path d="M61.9231 38.5547s23.3323 28.8523 0 39.9415V38.5547ZM61.9231 38.5547s-23.3322 28.8523 0 39.9415V38.5547Z" fill="#029759"/>
  <path d="M61.9231 52.0055v41.2763" stroke="url(#f)" stroke-width=".8275" stroke-miterlimit="10" stroke-linecap="round" stroke-linejoin="round"/>
  <path d="m67.147 56.1125-5.2237 5.2366-5.2236-5.2366M67.147 62.7866l-5.2237 5.2366-5.2236-5.2366" stroke="#00DA7F" stroke-width=".8275" stroke-miterlimit="10" stroke-linecap="round" stroke-linejoin="round"/>
  <defs>
    <linearGradient id="a" x1="246.803" y1="36.1642" x2="246.803" y2="93.2815" gradientUnits="userSpaceOnUse">
      <stop stop-color="#00DA7F"/>
      <stop offset="1" stop-color="#017843"/>
    </linearGradient>
    <linearGradient id="b" x1="852.186" y1="36.1642" x2="852.186" y2="93.2815" gradientUnits="userSpaceOnUse">
      <stop stop-color="#00DA7F"/>
      <stop offset="1" stop-color="#017843"/>
    </linearGradient>
    <linearGradient id="c" x1="522.014" y1="49.9351" x2="522.014" y2="93.2814" gradientUnits="userSpaceOnUse">
      <stop stop-color="#00DA7F"/>
      <stop offset="1" stop-color="#017843"/>
    </linearGradient>
    <linearGradient id="d" x1="626.504" y1="22.7518" x2="626.504" y2="93.2823" gradientUnits="userSpaceOnUse">
      <stop stop-color="#00DA7F"/>
      <stop offset="1" stop-color="#017843"/>
    </linearGradient>
    <linearGradient id="e" x1="17.4387" y1="25.8578" x2="17.4387" y2="93.2815" gradientUnits="userSpaceOnUse">
      <stop stop-color="#00DA7F"/>
      <stop offset="1" stop-color="#017843"/>
    </linearGradient>
    <linearGradient id="f" x1="62.4231" y1="52.0055" x2="62.4231" y2="93.2818" gradientUnits="userSpaceOnUse">
      <stop stop-color="#00DA7F"/>
      <stop offset="1" stop-color="#017843"/>
    </linearGradient>
  </defs>
</svg>