<svg xmlns="http://www.w3.org/2000/svg" viewBox="0 0 478 99">
  <path d="M11.398 22.6861c6.9926.0693 11.9574 3.1913 15.9432 8.3251-.4195-1.0406-.6293-2.1507-1.2587-3.1219-1.1887-1.8732-2.5872-3.6076-3.8459-5.4808-1.2587-1.8731-2.0978-3.9544-2.0279-6.2438 0-.9019.2797-1.8038.4196-2.9138 2.3076 1.4569 3.9858 2.9832 5.1745 5.2032 1.0489 2.0119 1.1189 4.232 1.6783 6.3132.5594 2.2895 1.5384 4.3708 2.9369 6.3133 2.0279 2.775 4.755 4.9257 7.3423 7.1457.7691.6244 1.6782 1.1794 2.5872 1.8038 0-.2081.07-.4162 0-.555-1.0489-1.4569-2.2376-2.8444-3.1467-4.3707-1.5383-2.4975-3.0068-5.2032-4.3354-7.9089-.6293-1.3181-.909-2.775-1.3985-4.1626-1.1888-3.1219-1.3286-6.3826-1.3286-9.6433 0-2.1506.8391-5.68883 1.7481-7.35386.6294.41626 1.3286.76314 1.8181 1.31815 1.3286 1.31815 2.7272 2.6363 3.846 4.02381 1.1188 1.3875 2.0978 2.8444 2.9369 4.3707.8391 1.5957 1.5384 3.2607 2.0978 4.9257.6293 1.7344 1.0489 3.5382 1.4684 5.342.2797 1.3875.5594 2.7751.6294 4.1626.2097 2.8444.2797 5.6889.4195 8.4639 0 .0694.07.1388.1399.4163.2797-.6938.5594-1.2488.7692-1.8732.6293-2.4282 1.3985-4.8563 1.3286-7.4233-.07-2.22.1398-4.5094-.2797-6.6601-.4196-2.4282-1.2587-4.8563-2.4475-7.0764-1.0489-1.9425-2.1677-3.885-3.0068-5.9663-1.0489-2.70571-.4895-5.34201.6993-8.04769 2.7271 2.22005 4.8249 4.64822 4.755 8.32519-.07 2.5669 0 5.1338.6293 7.6314.3496 1.3875.979 2.775 1.6782 4.0932.6294 1.2487 1.5384 2.3588 2.3775 3.4688.07.0694.2098.0694.4196.2081C49.368 16.9972 48.459 8.39453 53.3538.0693763c.2098 0 .3497 0 .4895-.0693763.6993 1.24877 1.5384 2.42817 2.1677 3.74632 2.3775 4.78697 2.6572 9.92078 2.3775 15.05468-.1398 2.0813-.6992 4.1626-1.0489 6.1745-.0699.3469-.0699.6937.1399 1.11.3496-.555.6993-1.0407.979-1.5957.7692-1.7344 1.6083-3.5382 2.1677-5.3419.4195-1.1794.4895-2.4282.6293-3.677.07-.6937 0-1.4569 0-2.1506.1399-2.012-.6293-3.88512-.9789-5.82766-.4196-2.15066.1398-4.02382 1.2586-5.82761.2098-.34688.4895-.62439.6993-.971267.3496-.693763.7692-.416258 1.0489 0 .909 1.040647 1.6083 2.220047 1.8181 3.676947.2098 1.31815.3496 2.6363.4895 3.88507 1.1188-2.6363 3.2166-4.64821 5.8738-6.52137.2098.97127.4895 1.80378.4895 2.6363.0699 1.52628.1398 3.05256-.6993 4.44008-.4196.62439-.909 1.24881-1.3985 1.87321-1.6083 1.9425-3.2166 3.885-4.825 5.8276-1.9579 2.4281-2.8669 5.3419-3.4963 8.3251-.0699.3469 0 .6938 0 1.0407-.0699.6937-.2097 1.3875-.3496 2.0813-.0699.2775-.0699.4856 0 .7631.1399 1.3181.3496 2.5669.5594 3.8851.2797 1.665.6293 3.33.979 4.9951.2797 1.1794.7692 2.2894 1.1887 3.4688-.2797-7.1458.4895-14.014 3.4963-20.6048 2.937-6.452 7.4822-11.58583 13.356-15.67903.979 2.49754 1.5384 4.99509 1.5384 7.63143 0 2.0812.1398 4.1625-.07 6.2438-.1398 1.5957-.5594 3.1913-.8391 4.7176-.2098 1.1794-.4895 2.3588-.7692 3.5382-.909 3.1219-2.0278 6.1745-3.6361 9.0189-.8392 1.5263-1.6083 3.0526-2.5873 4.5095-.9091 1.3181-1.958 2.4975-2.9369 3.6769-.0699.1388-.1399.2775-.1399.4857 3.4264-2.8445 6.713-5.8276 9.0205-9.7127 1.5384-2.5669 3.0069-5.1339 3.4964-8.0477.3496-2.0119.6293-3.9544.6992-5.9663.0699-2.7751.4895-5.4114 1.958-7.8396.8391-1.3875 1.9579-2.4281 3.4264-3.26064.1398.34684.3496.69374.3496 1.11004.1398 1.7344.4195 3.4688-.5594 5.0645-.6294 1.0406-1.3986 2.0812-2.0978 3.1219-1.3286 1.8731-1.888 3.9544-2.0279 6.3826 3.0768-6.2439 6.2934-9.4352 8.8807-9.0189-.2797 4.6482-2.9369 7.8395-6.3633 10.6146.0699.0693.0699.1387.1398.2081 1.1188-.555 2.3775-.9019 3.3565-1.665 1.2587-.9713 2.2376-2.1507 3.2865-3.2607.9091-.9713 1.8181-1.8732 3.2866-2.0813.9789-.1388 2.0283-.3469 3.1463-.555-.979 3.1913-3.2163 4.7176-5.7336 6.1051-2.9369 1.665-5.9438 3.1913-8.7408 5.0645-1.6783 1.11-2.9369 2.7056-4.0557 4.44-1.1888 1.8732-1.8881 3.9545-2.5873 5.9664-.3497 1.11-.5594 2.2894-.6294 3.4688-.1398 2.7751-.2097 5.4808-.2097 8.2558 0 1.11.1398 2.1507.3496 3.2607.4196-1.665.6993-3.3301 1.1887-4.9951.6993-2.2894 1.4685-4.5788 2.2377-6.8683 1.1188-3.3994 2.7271-6.6601 4.9648-9.5045 1.5383-2.0119 3.2865-3.8157 5.4542-5.2726 3.0768-2.2201 6.4333-3.8851 10.0695-4.9257.28-.0694.559-.2082.839-.3469h.28c.699 2.0813.21 4.1626.07 6.1745-.14 1.9425-.63 3.8157-1.189 5.6888-.769 2.6363-1.818 5.2033-3.077 7.6314-1.3284 2.567-2.7969 4.9951-4.6849 7.1458-1.6782 1.9425-3.4963 3.6769-5.3843 5.4113-2.1678 2.012-4.4753 3.8851-6.643 5.7583 1.0488.3469 7.8317-3.677 9.3002-4.787 2.7271-2.22 5.3144-4.5788 7.412-7.4233 2.098-2.8444 3.986-5.8276 5.175-9.1576 1.188-3.3301 2.028-6.7989 3.007-10.1983.489.4162 1.678 2.775 1.748 3.5381.07.6244.14 1.2488.209 1.8038.21 1.7344-.629 3.122-1.608 4.4401-1.119 1.4569-2.377 2.8444-3.356 4.3707-.7 1.0407-1.049 2.3588-1.539 3.5382-.209.4856-.279 1.0407-.419 1.5957 3.007-5.4808 5.944-6.9377 9.999-7.2845-.279 1.11-.349 2.22-.769 3.2606-.839 2.2201-2.238 4.1626-4.196 5.4808-1.678 1.1794-3.566 2.22-5.314 3.2607-1.888 1.11-3.776 2.0813-5.664 3.1913-2.5872 1.4569-4.6151 3.5382-6.2933 5.9663-1.0489 1.5957-1.958 3.2607-2.4475 5.0645-.4195 1.5263-.8391 3.1219-1.1887 4.6482-.0699.2775-.0699.4857-.2098.6938 1.1888-2.0119 2.3775-4.0932 3.6362-6.1051 1.7481-2.8445 4.1256-4.9258 6.8528-6.7989 2.0973-1.3875 4.3353-2.4976 6.7833-3.1913 2.237-.6244 4.545-1.1794 6.852-1.6651 1.189-.2775 2.378-.4856 3.567-.6937.069.0694.209.2081.279.2775-.279.9713-.489 1.9425-.909 2.8444-1.468 3.1913-3.496 5.9664-6.153 8.3252-2.448 2.1506-5.105 4.0238-8.112 5.4113-2.2374 1.0407-4.4751 2.0119-6.7826 3.0526 1.3985-.2081 2.797-.4163 4.1956-.6244 2.727-.4856 5.384-.9713 8.111-1.4569 1.888-.3469 3.637.0694 5.385.6244.629.2081 1.188.4162 2.028.6244-2.658 2.4975-5.385 4.3013-9.161 3.885 1.958 1.4569 4.196 1.8732 6.573 2.1507-2.587 5.6195-5.943 10.5452-9.999 15.4015-.28-1.7344-1.2588-2.2894-2.5874-2.0812-2.5174.3468-4.8249 1.2487-6.9926 2.5669-1.1888.6937-2.3775 1.4569-3.5663 2.22-.1398.0694-.3496.0694-.5594.0694.0699-.2081.0699-.4856.2098-.6244.909-.7631 1.7481-1.5263 2.7271-2.22 1.6782-1.2488 3.2865-2.567 5.0347-3.7464 1.888-1.3181 3.846-2.4975 5.8041-3.7463 1.398-.9019 2.797-1.8038 4.195-2.7056.63-.4163.77-1.1794.49-1.8038-.21-.6244-.839-.6938-1.469-.6938-1.818 0-3.566.4163-5.2441 1.11-1.8181.7632-3.7061 1.3876-5.3843 2.3588-1.9579 1.11-3.846 2.4282-5.734 3.677-2.7271 1.8731-5.3843 3.9544-8.1814 5.6888-1.6782 1.0407-3.5662 1.5957-5.3843 2.3588-.2098.0694-.4895.0694-.7692-.0694 1.0489-.6243 2.1677-1.2487 3.2166-1.8731 1.8181-1.1794 3.5663-2.3588 5.3144-3.6076 1.8181-1.2488 3.4964-2.5669 5.3145-3.8157 2.3075-1.5956 4.6151-3.2607 6.9926-4.7869 1.4684-.9019 3.0767-1.5263 4.6151-2.2895.3497-.2081.7692-.4162 1.1189-.555.6292-.2081.9792-.6244.9092-1.3181-.07-.6244-.49-.9713-1.0491-1.1794-1.2587-.555-2.5873-.6244-3.9858-.2775-1.3985.2775-2.867.4856-4.1956.9019-1.5384.4856-3.0068 1.11-4.4053 1.8731-2.4475 1.3182-4.825 2.7751-7.2025 4.1626-1.9579 1.11-3.9159 2.2894-5.9437 3.1913-2.7271 1.2488-5.5242 2.2201-8.531 2.4282-1.8181.1387-3.6362.2775-5.4543.3469-2.1677.0693-4.2655-.3469-6.3633-.9713-.7692-.2081-1.2587-.7631-1.3985-1.5957-.07-.6243.8391-1.8037 1.6782-2.0812 1.7482-.6244 3.5663-1.0407 5.5242-.6244.3496.0693.7692-.0694 1.1188 0 2.0279.2775 4.0557.6937 6.1535.6244 2.1678-.1388 4.2655-.4857 6.3633-1.1101 1.3986-.4162 2.867-.7631 4.2656-1.3875 2.0278-.9019 4.1256-1.8732 5.664-3.6769.5594-.6938.5594-1.4569-.1399-1.8732-.5594-.2775-1.1887-.555-1.8181-.555-2.1677 0-4.2655.1387-6.4332.1387-2.5873-.0693-5.1745-.0693-7.6919-.4162-1.888-.2081-3.776-.9019-5.5941-1.3875-2.0978-.6244-4.1257-1.2488-6.1535-1.9426-2.5873-.8325-5.1746-.9019-7.8318-.555-1.8181.2775-3.7061.4163-5.5242.7632-1.6083.3468-3.2166.9018-4.755 1.4569-1.818.555-3.6361 1.11-5.3843 1.8731-2.797 1.1794-5.5941 2.4976-8.3212 3.7463-1.6783.7632-3.4264 1.5957-5.1047 2.4282-1.5383.7631-3.0068 1.665-4.4752 2.4976-1.1888.6243-2.3076 1.2487-3.4964 1.8731-.2797.1388-.48945.2775-.83908.4163-2.79706-3.5382-4.40537-7.7008-6.15353-12.0021.20978-.0694.41956-.1388.62934-.0694 1.67823.4856 3.28654 1.11 4.96477 1.3875 3.2865.6244 6.643 1.2488 9.9995.4856 1.3985-.3468 2.797-.4162 4.1256-.8325 1.5384-.4856 3.0069-1.0406 4.4753-1.7344 1.3286-.6244 2.5174-1.3875 3.7761-2.0813.0699-.0693.2097-.0693.3496-.0693-.0699-.0694-.1399-.1388-.2098-.2082-.979.2775-1.9579.6244-2.867.9019-1.3286.3469-2.7271.6938-4.0557 1.0407-2.5873.6937-5.1746.8325-7.8318.6937-2.3775-.1387-4.755-.3468-6.9926-.9712-2.3775-.6244-4.54522-1.8038-6.85279-2.7057-.27971-.1388-.55941-.4857-.76919-.6938.2797-.2775.55941-.555.83912-.7631 1.74816-1.3182 3.63617-2.2201 5.66403-2.9832.97897-.3469 1.95793-.6938 2.93693-.9019 2.9369-.6938 5.8738-.9019 8.8107-.7631 2.6572.1387 5.3144.3469 7.9017 1.1794 2.1677.6937 4.4054 1.3181 6.7129 1.8731-.4895-.3469-.909-.6937-1.3985-.9712-2.2376-1.5263-4.4753-3.0526-7.1325-3.677-1.8181-.4162-3.776-.8325-5.5941-.8325-2.5873 0-5.1746.4856-7.7618.6244-1.2587.0694-2.4475 0-3.70614-.1388-2.30757-.2775-4.40536-1.11-6.22345-2.4975C2.09779 62.0224 1.11882 60.9124 0 59.8718c3.49632-2.2895 11.0484-1.3182 14.6146.2775.0699-.0694.1399-.1388.1399-.2082-.6993-.555-1.3286-1.1794-2.0279-1.5956-1.3985-.8325-2.86698-1.3182-4.47528-1.8038-3.28655-1.0406-5.87382-3.0526-7.1325-6.3826-.209777-.4857-.34963-.9019-.559409-1.4569 3.776029-.3469 6.992639.555 9.509989 3.2607 1.6782 1.8037 3.2865 3.6769 5.0347 5.4807 1.6083 1.5956 3.4264 2.9138 5.5242 3.8157 1.9579.8325 3.9159 1.8038 6.0137 2.3588 2.4474.6244 5.0347.9712 7.552 1.3181 1.5384.2082 3.0768.2082 4.6851.0694-1.6783-.555-3.3565-.9713-4.9648-1.665-1.9579-.8325-3.9159-1.7344-5.8039-2.7057-1.3985-.6938-2.797-1.3182-4.1256-2.1507-2.3076-1.3181-4.4054-2.9138-6.6431-4.3707-2.5173-1.665-4.6151-3.8157-6.643-6.0357-2.30753-2.4976-4.40532-5.2726-5.73393-8.4639-.41955-.9713-.83911-1.8732-1.3286-3.0526 3.14669-.2081 6.01367-.4856 8.88063.1388 2.5174.555 5.1047.9712 7.5521 1.8038 2.3775.8325 4.685 1.9425 6.9926 3.0525 3.0768 1.5263 5.8738 3.5382 8.4611 5.7582 1.5384 1.2488 2.9369 2.7057 4.3354 4.232 1.6783 1.8732 3.2167 3.8851 4.8949 5.897-.4196-1.0407-.6993-1.9426-1.1188-2.8444-.8391-1.6651-1.6783-3.2607-2.5873-4.8564-.6293-1.0406-1.4685-2.0813-2.3076-2.9832-1.3286-1.4569-2.797-2.8444-4.2655-4.0932-1.1188-.9712-2.3076-1.9425-3.5662-2.6363-2.2377-1.2487-4.6152-2.3588-6.9227-3.5382-2.3775-1.2487-4.825-2.4975-6.9927-4.0238-1.8181-1.3181-3.2166-3.1913-4.0557-5.342-.5594-1.3875-.979-2.775-1.5384-4.44Zm41.0468 41.9726c0-.2775 0-.4162-.0699-.555-.5594-1.7344-1.1888-3.4688-1.6083-5.2726-.4196-1.665-.6993-3.3994-.7692-5.1338-.07-1.9426-.1399-3.9545.2098-5.8276.2797-1.6651.909-3.2607 1.6083-4.8564.6293-1.3181 1.4684-2.4975 2.3775-3.9544.6293.8325 1.0489 1.4569 1.5383 2.0813 1.958 2.5669 3.2167 5.4113 3.6362 8.6026.4196 3.2607.1399 6.452-.5594 9.6433-.2098 1.2488-.4895 2.3588-.7692 3.7463 6.8528-9.2964 8.0415-22.2004-4.1956-32.6762-1.1887 1.4569-2.3775 2.8444-3.5662 4.3013-1.7482 2.2201-3.0069 4.6482-3.776 7.3539-.6993 2.4282-.979 4.9257-.6993 7.4927.2797 2.8444 1.1188 5.4113 2.2376 8.0476 1.1888 2.4976 2.7272 4.7176 4.4054 7.007ZM73.6325 46.829c-3.3565 1.8732-6.5032 3.8157-8.8807 6.5908-2.0278 2.2894-3.0767 4.9257-3.1466 8.0476-.07 2.4976.4195 4.8564 1.2586 7.2151.3497.9713.6993 1.9426 1.1189 2.9139.1398-2.012.1398-3.9545.2097-5.897 0-1.8732.6294-3.7464 1.3986-5.4114 1.1188-2.4282 3.0767-4.3013 4.9647-6.1745.4196-.4162.979-.6937 1.4685-1.0406.2098.4856.4195.9712.6293 1.4569 1.0489 2.0119 1.3286 4.1626 1.3286 6.3132 0 2.1507-.3496 4.3014-1.3985 6.2439-.909 1.8038-1.888 3.6076-2.7971 5.4113-.1398.3469-.2097.7632-.4195 1.3876.909-.8325 1.6782-1.5263 2.3775-2.1507 2.9369-2.9138 5.3144-6.0357 6.1535-10.2677.6293-2.9832-.0699-5.6888-1.0489-8.3945-.8391-2.1507-2.0978-4.0932-3.2166-6.2439Zm4.0557 28.2362c0 .0693.07.1387.07.2081.6992-.1388 1.3985-.2775 2.0278-.4163 1.6083-.4162 3.0768-.9712 4.2655-2.0812 1.888-1.7345 2.7272-4.0239 3.2866-6.452.1398-.6938 0-.8326-.6993-.9713-2.1677-.4163-4.2655.0694-6.4332.4856-.5594.1388-1.1188.4857-1.6083.7632-1.5384.8325-2.5174 2.22-3.2166 3.6769-.5594 1.11-.8392 2.4282-1.2587 3.6769 1.3985-1.665 2.5173-3.5381 4.4753-4.5788 1.9579-1.0406 3.9858-1.5956 6.1535-1.4569-.909 3.8851-3.7061 5.8276-7.0626 7.1458ZM42.1656 63.965c.6993 2.9138 2.2377 5.1338 5.2445 6.1051.7692.2775 1.6083.2775 2.4474.4162-2.1677-1.0406-3.7061-2.5669-4.755-4.7176 1.7482 0 3.3565-.2775 4.8249.6244 1.3287.8325 2.5174 1.8732 3.5663 2.7057-1.1888-4.0932-5.0347-6.8682-11.3281-5.1338Z" fill="url(#a)"/>
  <path d="M165.516 56.5419h-17.272v-1.0406c2.028-.3469 2.447-.5551 2.447-9.5046V27.612c0-8.9496-.419-9.1577-2.447-9.5046v-1.0406h15.593c10.07 0 14.965 3.6075 14.965 9.8514 0 3.6076-2.028 6.6601-5.874 8.2558v.2775c6.083 1.5263 8.461 5.4807 8.461 9.9208 0 6.3133-3.566 11.1696-15.873 11.1696Zm-1.818-33.5088h-5.455v10.4065h5.455c5.034 0 7.412-1.9426 7.412-5.4114 0-2.8444-2.168-4.9951-7.412-4.9951Zm1.398 16.3728h-6.853v11.239h6.853c5.734 0 8.671-1.8732 8.671-5.4807 0-3.7463-2.797-5.7583-8.671-5.7583ZM207.052 23.033h-1.119v22.9636c0 8.9495.14 9.2964 2.797 9.5046v1.0406h-13.146v-1.0406c2.657-.2082 2.797-.4857 2.797-9.5046V23.033h-3.217c-9.02 0-9.23.3469-9.579 2.8445h-1.049v-8.8108h21.677c11.957 0 16.293-.8325 18.53-3.8157l.839.555c-3.076 6.3132-6.852 9.227-18.53 9.227ZM241.666 57.4438c-11.328 0-20.769-7.007-20.769-20.6048 0-13.5284 9.371-20.6047 20.769-20.6047 11.328 0 20.768 7.007 20.768 20.6047 0 13.5284-9.44 20.6048-20.768 20.6048Zm0-35.2432c-4.895 0-13.007 3.2607-13.007 14.6384s8.112 14.6384 13.007 14.6384c4.894 0 13.006-3.2607 13.006-14.6384s-8.112-14.6384-13.006-14.6384ZM283.412 41.7647h-5.385v4.232c0 8.9495.14 9.2964 2.797 9.5046v1.0406h-12.726v-1.0406c2.028-.3469 2.447-.5551 2.447-9.5046V27.612c0-8.9496-.419-9.1577-2.447-9.5046v-1.0406h15.244c9.02 0 15.244 4.0932 15.244 12.349 0 8.2557-6.154 12.3489-15.174 12.3489Zm-.49-18.7316h-4.895v12.8347h4.895c4.475 0 8.042-1.8732 8.042-6.3827 0-4.5094-3.567-6.452-8.042-6.452ZM329.773 44.3317l-3.916-16.581c-.979-4.1626-2.238-5.4807-4.755-5.4807s-3.776 1.3181-4.755 5.4807l-3.916 16.581c-2.238 9.4351-6.573 12.9039-14.125 12.9039V56.195c2.098-.555 3.356-1.3181 6.153-12.2102l4.406-16.9278c1.818-6.7295 4.825-10.8227 12.237-10.8227s10.419 4.0932 12.237 10.8227l4.405 16.9278c2.797 10.8921 4.126 11.5858 6.154 12.2102v1.0406c-7.552 0-11.888-3.4688-14.125-12.9039ZM423.474 56.5418v-25.253L398.79 58.2762h-1.049V27.6119c0-8.9496-.419-9.1577-2.447-9.5046v-1.0406h9.929v25.253l24.684-26.9874h1.049v30.6643c0 8.9496.42 9.1577 2.448 9.5046v1.0406h-9.93Zm-7.622-40.0301c-5.804 0-8.741-2.9138-8.741-7.07641 0-1.59565 1.119-2.91381 2.867-2.91381 1.678 0 2.657 1.04065 2.797 2.70568.14 1.73444.839 3.05254 3.077 3.05254s2.867-1.3181 3.077-3.05254c.14-1.66503 1.119-2.70568 2.797-2.70568 1.748 0 2.867 1.31816 2.867 2.91381.07 4.16261-2.867 7.07641-8.741 7.07641ZM467.738 56.5419v-17.136h-18.251v17.136h-9.93v-1.0406c2.028-.3469 2.448-.5551 2.448-9.5046V27.612c0-8.9496-.42-9.1577-2.448-9.5046v-1.0406h9.93v16.3728h18.251V17.0668h9.859v1.0406c-2.028.3469-2.447.555-2.447 9.5046v18.3847c0 8.9495.419 9.1577 2.447 9.5046v1.0406h-9.859ZM378.092 44.3317l-.559-2.4282H360.96l-.559 2.4282c-2.238 9.4351-6.084 12.9039-13.985 12.9039V56.195c2.237-.4163 3.496-2.1507 6.153-12.2102l4.405-16.9278c1.888-7.3539 5.385-10.8227 12.238-10.8227 6.852 0 10.349 3.3994 12.237 10.8227l4.405 16.9278c2.657 10.0595 3.916 11.7939 6.153 12.2102v1.0406c-7.901 0-11.677-3.4688-13.915-12.9039Zm-3.916-16.581c-.979-3.8851-2.098-5.4807-4.964-5.4807-2.867 0-3.986 1.5956-4.965 5.4807l-2.098 8.2558h14.055l-2.028-8.2558ZM157.964 77.771v10.6839h-1.469v-9.3658h-6.713v9.3658h-1.468V77.771h9.65ZM172.508 83.5986h-9.02c.07 1.11.489 2.0119 1.258 2.7057.77.6938 1.749 1.0406 2.937 1.0406.7 0 1.259-.1387 1.818-.3468.56-.2082 1.049-.5551 1.469-1.0407l.839.9019c-.49.555-1.049.9713-1.818 1.3182-.699.2775-1.469.4162-2.378.4162-1.118 0-2.097-.2081-2.937-.6938-.839-.4856-1.538-1.11-1.957-1.9425-.49-.8325-.7-1.7344-.7-2.775 0-1.0407.21-1.9426.7-2.7751.489-.8325 1.048-1.4569 1.888-1.9425.839-.4857 1.678-.6938 2.657-.6938.979 0 1.888.2081 2.657.6938.769.4856 1.398 1.11 1.888 1.9425.42.8325.699 1.7344.699 2.7751v.4162Zm-7.832-3.6769c-.699.6243-1.118 1.5262-1.188 2.5669h7.622c-.07-1.0407-.49-1.9426-1.189-2.5669-.699-.6244-1.608-.9713-2.657-.9713-.979 0-1.888.3469-2.588.9713ZM185.025 78.3953c.839.4856 1.469 1.11 1.888 1.9425.49.8326.699 1.7345.699 2.8445 0 1.0406-.209 2.0119-.699 2.8444-.489.8325-1.119 1.4569-1.888 1.9425-.839.4857-1.748.6938-2.727.6938-.839 0-1.678-.2081-2.378-.555-.699-.3469-1.258-.9019-1.748-1.5957v5.9664h-1.468v-14.569h1.398v2.0813c.42-.6938.979-1.2488 1.749-1.5957.699-.3469 1.538-.555 2.447-.555.979-.1388 1.888.0694 2.727.555Zm-.839 8.3945c.629-.3468 1.119-.8325 1.468-1.4569.35-.6243.49-1.3875.49-2.1506 0-.7632-.14-1.5263-.49-2.1507-.349-.6244-.839-1.11-1.468-1.4569s-1.329-.555-2.028-.555c-.769 0-1.468.2081-2.028.555-.559.3469-1.049.8325-1.398 1.4569-.35.6244-.49 1.3182-.49 2.1507s.14 1.5263.49 2.1506c.349.6244.839 1.1101 1.398 1.4569.56.3469 1.259.4857 2.028.4857.769 0 1.469-.1388 2.028-.4857ZM201.178 83.5986h-9.021c.07 1.11.49 2.0119 1.259 2.7057.769.6938 1.748 1.0406 2.937 1.0406.699 0 1.259-.1387 1.818-.3468.56-.2082 1.049-.5551 1.469-1.0407l.839.9019c-.49.555-1.049.9713-1.818 1.3182-.7.2775-1.469.4162-2.378.4162-1.119 0-2.098-.2081-2.937-.6938-.839-.4856-1.538-1.11-1.958-1.9425-.489-.8325-.699-1.7344-.699-2.775 0-1.0407.21-1.9426.699-2.7751.49-.8325 1.049-1.4569 1.888-1.9425.839-.4857 1.678-.6938 2.657-.6938.979 0 1.888.2081 2.658.6938.769.4856 1.398 1.11 1.888 1.9425.419.8325.699 1.7344.699 2.7751v.4162Zm-7.832-3.6769c-.699.6243-1.119 1.5262-1.189 2.5669h7.622c-.07-1.0407-.489-1.9426-1.188-2.5669-.7-.6244-1.609-.9713-2.658-.9713-.979 0-1.888.3469-2.587.9713ZM213.695 78.3953c.839.4856 1.468 1.11 1.888 1.9425.489.8326.699 1.7345.699 2.8445 0 1.0406-.21 2.0119-.699 2.8444-.49.8325-1.119 1.4569-1.888 1.9425-.839.4857-1.748.6938-2.727.6938-.839 0-1.679-.2081-2.378-.555-.699-.3469-1.259-.9019-1.748-1.5957v5.9664h-1.468v-14.569h1.398v2.0813c.42-.6938.979-1.2488 1.748-1.5957.699-.3469 1.539-.555 2.448-.555.979-.1388 1.888.0694 2.727.555Zm-.769 8.3945c.629-.3468 1.118-.8325 1.468-1.4569.35-.6243.49-1.3875.49-2.1506 0-.7632-.14-1.5263-.49-2.1507-.35-.6244-.839-1.11-1.468-1.4569-.63-.3469-1.329-.555-2.028-.555-.769 0-1.469.2081-2.028.555-.56.3469-1.049.8325-1.399 1.4569-.349.6244-.489 1.3182-.489 2.1507s.14 1.5263.489 2.1506c.35.6244.839 1.1101 1.399 1.4569.559.3469 1.259.4857 2.028.4857.699 0 1.398-.1388 2.028-.4857ZM227.33 78.7424c.77.6937 1.119 1.7344 1.119 3.1219v6.5907h-1.398V86.79c-.35.555-.839.9713-1.469 1.3182-.629.2775-1.398.4856-2.237.4856-1.189 0-2.168-.2775-2.867-.8325-.7-.555-1.049-1.3182-1.049-2.2201 0-.9019.349-1.665.979-2.22.629-.555 1.678-.8325 3.146-.8325h3.427v-.6244c0-.9019-.28-1.5957-.769-2.0813-.49-.4856-1.259-.6938-2.238-.6938-.699 0-1.329.1388-1.958.3469-.629.2081-1.189.555-1.608.9019l-.63-1.0406c.56-.4857 1.189-.8325 1.958-1.0407.769-.2775 1.539-.3469 2.378-.3469 1.398-.2081 2.447.1388 3.216.8326Zm-1.678 8.117c.56-.3469 1.049-.9019 1.329-1.5957v-1.7344h-3.357c-1.818 0-2.727.6244-2.727 1.8732 0 .6244.21 1.11.699 1.4569.49.3469 1.119.555 2.028.555.769 0 1.469-.2081 2.028-.555ZM241.176 78.7422c.769.4163 1.398 1.0407 1.818 1.8732.419.7631.629 1.665.629 2.7057 0 1.0406-.21 1.9425-.699 2.775-.49.8325-1.119 1.4569-1.888 1.8732-.839.4162-1.748.6938-2.797.6938-1.818 0-3.147-.6244-4.126-1.8732-.979-1.2488-1.468-2.9832-1.468-5.1339 0-2.2894.419-4.0238 1.328-5.2726.909-1.2487 2.238-2.0119 4.126-2.4975l4.825-1.11.279 1.3181-4.545 1.0407c-1.538.3469-2.657.9019-3.356 1.8038-.7.8325-1.119 2.1506-1.189 3.8157.42-.8326 1.049-1.457 1.818-1.9426.769-.4856 1.678-.6937 2.657-.6937.909-.0694 1.818.1387 2.588.6243Zm-.84 8.1171c.56-.3469 1.049-.8326 1.399-1.4569.35-.6244.489-1.3182.489-2.0813 0-.7632-.139-1.4569-.489-2.0813-.35-.6244-.769-1.0407-1.399-1.3875-.629-.3469-1.258-.4857-2.027-.4857-.77 0-1.469.1388-2.028.4857-.56.3468-1.049.7631-1.399 1.3875-.349.6244-.489 1.3181-.489 2.0813 0 .7631.14 1.4569.489 2.0813.35.6243.769 1.11 1.399 1.4569.629.3468 1.258.4856 2.028.4856.769 0 1.398-.1388 2.027-.4856ZM249.427 87.8305c-.839-.4856-1.468-1.11-1.958-1.9425-.489-.8326-.699-1.7345-.699-2.7751 0-1.0406.21-1.9425.699-2.7751.49-.8325 1.119-1.4569 1.958-1.9425.839-.4856 1.748-.6938 2.797-.6938 1.049 0 1.958.2082 2.797.6938.839.4856 1.469 1.11 1.958 1.9425.49.8326.7 1.7345.7 2.7751 0 1.0406-.21 1.9425-.7 2.7751-.489.8325-1.119 1.4569-1.958 1.9425-.839.4856-1.748.6938-2.797.6938-1.049 0-1.958-.2082-2.797-.6938Zm4.825-1.0407c.63-.3468 1.049-.8325 1.399-1.4569.349-.6243.489-1.3875.489-2.1506 0-.7632-.14-1.5263-.489-2.1507-.35-.6244-.839-1.11-1.399-1.4569-.629-.3469-1.259-.4856-2.028-.4856-.769 0-1.468.1387-2.028.4856-.629.3469-1.048.8325-1.398 1.4569-.35.6244-.49 1.3875-.49 2.1507 0 .7631.14 1.5263.49 2.1506.35.6244.839 1.1101 1.398 1.4569.63.3469 1.259.4857 2.028.4857.769 0 1.469-.1388 2.028-.4857ZM268.937 79.0891h-4.056v9.3658h-1.469v-9.3658h-4.055v-1.2488h9.58v1.2488ZM275.999 83.7374h-2.447v4.7175h-1.469V77.771h1.469v4.6482h2.447l3.776-4.6482h1.539l-4.196 5.1338 4.545 5.4808h-1.748l-3.916-4.6482ZM291.663 78.7424c.769.6937 1.118 1.7344 1.118 3.1219v6.5907h-1.398V86.79c-.35.555-.839.9713-1.468 1.3182-.63.2775-1.399.4856-2.238.4856-1.189 0-2.168-.2775-2.867-.8325-.699-.555-1.049-1.3182-1.049-2.2201 0-.9019.35-1.665.979-2.22.629-.555 1.678-.8325 3.147-.8325h3.426v-.6244c0-.9019-.28-1.5957-.769-2.0813-.49-.4856-1.259-.6938-2.238-.6938-.699 0-1.328.1388-1.958.3469-.629.2081-1.188.555-1.608.9019l-.629-1.0406c.559-.4857 1.188-.8325 1.958-1.0407.769-.2775 1.538-.3469 2.377-.3469 1.399-.2081 2.517.1388 3.217.8326Zm-1.609 8.117c.56-.3469 1.049-.9019 1.329-1.5957v-1.7344h-3.357c-1.818 0-2.727.6244-2.727 1.8732 0 .6244.21 1.11.7 1.4569.489.3469 1.118.555 2.027.555.77 0 1.469-.2081 2.028-.555ZM313.13 85.5411c0 .9019-.35 1.6651-1.049 2.1507-.699.4856-1.748.7631-3.077.7631h-4.895V77.771h4.755c1.259 0 2.168.2081 2.867.6938.7.4856 1.049 1.1794 1.049 2.0119 0 .555-.14 1.11-.489 1.4569-.35.4162-.769.6937-1.329.9019 1.399.4162 2.168 1.3181 2.168 2.7056Zm-7.622-2.9831h3.217c.839 0 1.468-.1388 1.888-.4857.419-.2775.629-.7631.629-1.3875s-.21-1.0406-.629-1.3181c-.42-.2776-1.049-.4163-1.888-.4163h-3.217v3.6076Zm5.454 4.3013c.49-.2775.699-.7631.699-1.3875s-.209-1.1101-.629-1.3876c-.419-.2775-1.119-.4856-2.028-.4856h-3.566v3.677h3.426c.979.0693 1.679-.1388 2.098-.4163ZM325.087 79.0891h-4.055v9.3658h-1.469v-9.3658h-4.056v-1.2488h9.58v1.2488ZM329.353 87.8305c-.839-.4856-1.468-1.11-1.958-1.9425-.489-.8326-.699-1.7345-.699-2.7751 0-1.0406.21-1.9425.699-2.7751.49-.8325 1.119-1.4569 1.958-1.9425.839-.4856 1.748-.6938 2.797-.6938 1.049 0 1.958.2082 2.797.6938.839.4856 1.469 1.11 1.958 1.9425.49.8326.699 1.7345.699 2.7751 0 1.0406-.209 1.9425-.699 2.7751-.489.8325-1.119 1.4569-1.958 1.9425-.839.4856-1.748.6938-2.797.6938-1.049 0-1.958-.2082-2.797-.6938Zm4.825-1.0407c.629-.3468 1.049-.8325 1.398-1.4569.35-.6243.49-1.3875.49-2.1506 0-.7632-.14-1.5263-.49-2.1507-.349-.6244-.839-1.11-1.398-1.4569-.629-.3469-1.259-.4856-2.028-.4856-.769 0-1.468.1387-2.028.4856-.629.3469-1.049.8325-1.398 1.4569-.35.6244-.49 1.3875-.49 2.1507 0 .7631.14 1.5263.49 2.1506.349.6244.839 1.1101 1.398 1.4569.63.3469 1.259.4857 2.028.4857.769 0 1.399-.1388 2.028-.4857ZM349.981 78.3953c.839.4856 1.469 1.11 1.888 1.9425.49.8326.7 1.7345.7 2.8445 0 1.0406-.21 2.0119-.7 2.8444-.489.8325-1.118 1.4569-1.888 1.9425-.839.4857-1.748.6938-2.727.6938-.839 0-1.678-.2081-2.377-.555-.699-.3469-1.259-.9019-1.748-1.5957v5.9664h-1.469v-14.569h1.399v2.0813c.419-.6938.979-1.2488 1.748-1.5957.699-.3469 1.538-.555 2.447-.555.979-.1388 1.888.0694 2.727.555Zm-.769 8.3945c.63-.3468 1.119-.8325 1.469-1.4569.349-.6243.489-1.3875.489-2.1506 0-.7632-.14-1.5263-.489-2.1507-.35-.6244-.839-1.11-1.469-1.4569-.629-.3469-1.258-.555-2.028-.555-.769 0-1.468.2081-2.028.555-.559.3469-1.048.8325-1.398 1.4569-.35.6244-.49 1.3182-.49 2.1507s.14 1.5263.49 2.1506c.35.6244.839 1.1101 1.398 1.4569.56.3469 1.259.4857 2.028.4857.7 0 1.399-.1388 2.028-.4857ZM358.373 87.8305c-.84-.4856-1.469-1.11-1.958-1.9425-.49-.8326-.7-1.7345-.7-2.7751 0-1.0406.21-1.9425.7-2.7751.489-.8325 1.118-1.4569 1.958-1.9425.839-.4856 1.818-.6938 2.867-.6938.909 0 1.748.2082 2.447.5551.699.3468 1.329.9018 1.748 1.5956l-1.049.7631c-.349-.555-.769-.9018-1.328-1.1794-.56-.2775-1.119-.4162-1.749-.4162-.769 0-1.468.1387-2.097.4856-.63.3469-1.119.8325-1.469 1.4569-.349.6244-.489 1.3876-.489 2.1507 0 .8325.14 1.5263.489 2.1507.35.6244.839 1.11 1.469 1.4569.629.3468 1.328.4856 2.097.4856.63 0 1.259-.1388 1.749-.4163.559-.2775.979-.6243 1.328-1.1794l1.049.7632c-.419.6937-.979 1.1794-1.748 1.5956-.769.3469-1.538.5551-2.447.5551-1.049 0-2.028-.2082-2.867-.6938ZM376.833 82.4192c.699.555 1.049 1.3875 1.049 2.4976 0 1.11-.35 2.0119-1.119 2.6363-.769.6243-1.818.9018-3.286.9018h-4.266V77.771h1.469v3.7463l3.076.0694c1.399 0 2.378.2775 3.077.8325Zm-1.119 4.3707c.49-.4162.77-1.0406.77-1.8038 0-.7631-.28-1.3875-.77-1.7344-.489-.3469-1.258-.555-2.237-.555l-2.727-.0694v4.7176l2.727.0694c.979 0 1.678-.2081 2.237-.6244Zm3.986-9.0189h1.469v10.6839H379.7V77.771ZM394.594 78.3953c.84.4856 1.469 1.11 1.888 1.9425.49.8326.7 1.7345.7 2.8445 0 1.0406-.21 2.0119-.7 2.8444-.489.8325-1.118 1.4569-1.888 1.9425-.839.4857-1.748.6938-2.727.6938-.839 0-1.678-.2081-2.377-.555-.699-.3469-1.259-.9019-1.748-1.5957v5.9664h-1.469v-14.569h1.399v2.0813c.419-.6938.979-1.2488 1.748-1.5957.699-.3469 1.538-.555 2.447-.555.979-.1388 1.888.0694 2.727.555Zm-.769 8.3945c.63-.3468 1.119-.8325 1.469-1.4569.349-.6243.489-1.3875.489-2.1506 0-.7632-.14-1.5263-.489-2.1507-.35-.6244-.839-1.11-1.469-1.4569-.629-.3469-1.258-.555-2.028-.555-.769 0-1.468.2081-2.027.555-.56.3469-1.049.8325-1.399 1.4569-.35.6244-.49 1.3182-.49 2.1507s.14 1.5263.49 2.1506c.35.6244.839 1.1101 1.399 1.4569.559.3469 1.258.4857 2.027.4857.7 0 1.399-.1388 2.028-.4857ZM409.069 82.4192c.7.555 1.049 1.3875 1.049 2.4976 0 1.11-.349 2.0119-1.119 2.6363-.769.6243-1.818.9018-3.286.9018h-4.336V77.771h1.469v3.7463l3.147.0694c1.328 0 2.377.2775 3.076.8325Zm-1.188 4.3707c.489-.4162.769-1.0406.769-1.8038 0-.7631-.28-1.3875-.769-1.7344-.49-.3469-1.259-.555-2.238-.555l-2.797-.0694v4.7176l2.797.0694c.979 0 1.678-.2081 2.238-.6244ZM421.306 77.771v10.6839h-1.329v-3.5381h-3.776l-2.517 3.5381h-1.538l2.657-3.7463c-.839-.2081-1.469-.6244-1.888-1.1794-.42-.555-.699-1.2487-.699-2.0813 0-1.1794.419-2.0812 1.258-2.7056.839-.6244 1.958-.9019 3.357-.9019h4.475v-.0694Zm-4.545 6.1051h3.216v-4.787h-3.146c-2.098 0-3.147.8326-3.147 2.4282 0 1.5263 1.049 2.3588 3.077 2.3588Z" fill="#272727"/>
  <defs>
    <linearGradient id="a" x1="57.9421" y1="0" x2="57.9421" y2="98.8832" gradientUnits="userSpaceOnUse">
      <stop stop-color="#02A05F"/>
      <stop offset=".9995" stop-color="#004C24"/>
    </linearGradient>
  </defs>
</svg>