<svg xmlns="http://www.w3.org/2000/svg" viewBox="0 0 95 90">
  <defs/>
  <path d="M41.583 89.518C18.805 85.988-3.063 70.385.354 45.67 3.201 24.6 24.5 1.708 45.91.114 47.505 0 48.986 0 50.58 0c11.959.342 22.55 5.239 30.409 12.756 7.858 7.403 12.87 17.311 13.78 27.79 2.506 27.789-24.828 53.3-53.186 48.972z" fill="#F4F7FA"/>
  <path d="M69.941 10.364c5.467 6.606 11.048 13.211 16.514 19.817-18.222 4.442-20.5 27.903-38.722 32.345-5.467-6.606-11.048-13.211-16.514-19.817 18.222-4.442 20.5-27.903 38.722-32.345z" fill="#008747"/>
  <path d="M83.267 29.384C67.55 34.737 64.247 55.124 48.53 60.59c-4.67-5.58-9.34-11.275-14.123-16.856 15.717-5.353 19.02-25.74 34.737-31.206 4.67 5.58 9.453 11.161 14.123 16.856z" fill="url(#paint0_linear_112:1184)"/>
  <path d="M37.824 41.798c.114.114.114.114.114.228.683.91.797 1.822.57 2.733-.228.797-.798 1.367-1.709 1.822 0 .114-.114.114-.341.114-.57.228-1.14.228-1.823.228-1.139-1.367-2.391-2.847-3.53-4.214 1.936-.456 3.644-1.139 5.353-2.05.57.342 1.025.683 1.366 1.139zM52.288 59.11c.342.455.57.91.798 1.48a31.37 31.37 0 01-5.24 2.05c-1.252-1.48-2.391-2.847-3.644-4.328.342-.228.911-.456 1.367-.683.114 0 .341-.114.455-.114 2.164-.57 4.67-.114 6.15 1.48l.114.114zM69.942 10.364c1.139 1.367 2.391 2.847 3.53 4.214-.341.228-.91.456-1.366.683-.114 0-.342.114-.456.114-2.164.57-4.67.114-6.036-1.367l-.228-.227c-.342-.456-.683-.911-.683-1.367 1.594-.797 3.302-1.594 5.239-2.05zM82.811 25.853c1.253 1.48 2.392 2.847 3.644 4.328a19.322 19.322 0 00-5.238 2.05c-.57-.342-1.025-.683-1.367-1.139l-.114-.114c-.57-.797-.797-1.708-.683-2.62a3.324 3.324 0 011.708-2.05c.114-.113.228-.113.456-.113.455-.228 1.025-.342 1.594-.342z" fill="#008747"/>
  <path d="M34.863 5.922c8.428 1.936 16.742 3.759 25.17 5.695-11.73 14.578.683 34.623-11.047 49.2-8.428-1.936-16.742-3.758-25.17-5.694 11.73-14.578-.684-34.623 11.047-49.2z" fill="#008747"/>
  <path d="M56.958 12.87c-9.225 13.894.57 32.003-8.656 45.898-7.175-1.595-14.236-3.19-21.411-4.784 9.225-13.895-.57-32.003 8.656-45.898 7.175 1.48 14.236 3.19 21.411 4.784z" fill="url(#paint1_linear_112:1184)"/>
  <path d="M28.485 50.34c.114 0 .228 0 .228.114 1.025.341 1.822 1.025 2.05 1.822.342.683.228 1.594-.228 2.505-.113.114-.113.228-.227.342a6.529 6.529 0 01-1.253 1.253c-1.822-.456-3.53-.797-5.353-1.253 1.253-1.594 2.278-3.189 2.961-4.783.683-.114 1.253-.114 1.822 0zM50.466 55.237c.57.114 1.025.342 1.48.683-.796 1.595-1.708 3.303-2.96 4.784-1.823-.456-3.645-.797-5.467-1.253.114-.456.342-.911.683-1.367.114-.114.228-.228.228-.341 1.367-1.823 3.644-2.962 5.694-2.62.228.114.228.114.342.114zM34.863 5.922c1.822.456 3.53.797 5.353 1.253-.114.342-.342.797-.684 1.367-.113.114-.227.228-.227.341-1.367 1.709-3.645 2.848-5.695 2.62h-.228c-.569-.114-1.139-.342-1.48-.684.797-1.708 1.708-3.416 2.961-4.897zM54.566 10.364c1.822.456 3.645.797 5.467 1.253-1.253 1.594-2.164 3.189-2.961 4.783-.684.114-1.253.114-1.823 0h-.227c-1.025-.228-1.709-.91-2.05-1.708-.342-.797-.342-1.709.114-2.62.113-.113.113-.227.227-.341a4.856 4.856 0 011.253-1.367z" fill="#008747"/>
  <path d="M69.372 30.523c.57.341.683 1.025.456 1.48l-19.704 30.75c-.341.57-1.252.798-1.822.456L28.03 49.884c-.57-.342-.684-1.253-.228-1.708l19.703-30.181c.342-.456 1.025-.57 1.594-.228l20.273 12.756z" fill="url(#paint2_linear_112:1184)"/>
  <path d="M69.828 29.953c.57.342.683 1.025.455 1.48l-19.93 31.093c-.342.57-1.026.683-1.595.342l-20.5-13.326c-.57-.341-.684-1.025-.342-1.594l19.93-30.637c.342-.455 1.026-.57 1.595-.227l20.387 12.87z" fill="#008747"/>
  <g opacity=".7" fill="#F4F7FA">
    <path opacity=".7" d="M48.985 49.884l-3.303 5.011c-.113.228-.455.342-.683.114l-1.253-.683c-.227-.114-.341-.456-.114-.683l3.303-5.011c.114-.228.456-.342.684-.114l1.252.683c.228.228.228.456.114.683zM53.427 43.279l-3.303 4.897c-.114.228-.455.341-.683.114l-1.253-.684c-.228-.114-.342-.455-.114-.683l3.19-4.783c.113-.228.455-.342.682-.114l1.253.683c.228.114.342.342.228.57zM57.755 36.787l-3.189 4.897c-.114.228-.456.342-.683.114l-1.253-.683c-.228-.114-.342-.456-.114-.57l3.189-4.783c.114-.228.456-.228.683-.114l1.253.683c.114 0 .228.228.114.456zM61.969 30.409l-3.19 4.783c-.113.228-.455.228-.682.114l-1.253-.683c-.228-.114-.342-.456-.114-.57l3.189-4.783c.114-.228.455-.228.683-.114l1.253.684c.228.113.228.341.114.569z"/>
  </g>
  <g opacity=".42">
    <path opacity=".42" d="M53.883 50.91l-4.556 6.947c-.114.113-.227.113-.455.113l-1.14-.797c-.113-.114-.227-.228-.113-.455l4.556-6.948c.114-.114.227-.114.455-.114l1.14.798c.227.114.227.341.113.455z" fill="url(#paint3_linear_112:1184)"/>
    <path opacity=".42" d="M62.652 37.584l-6.036 9.225c-.114.114-.228.114-.455.114l-1.14-.797c-.113-.114-.227-.228-.113-.456l6.036-9.225c.114-.114.228-.114.456-.114l1.139.683c.113.228.113.456.113.57z" fill="url(#paint4_linear_112:1184)"/>
  </g>
  <path opacity=".4" d="M52.06 23.12c1.367.911 1.823 2.733.798 4.214-.911 1.367-2.847 1.822-4.214 1.025a3.08 3.08 0 01-.911-4.214c1.025-1.48 2.847-1.936 4.328-1.025z" fill="#EEF2F6"/>
  <path d="M69.714 45.329L66.41 79.268c-.114.911-.456 1.594-1.139 2.164-.57.456-1.253.683-2.05.57L20.513 77.56c-1.822-.228-3.075-1.709-2.961-3.417l3.986-35.99c.228-1.708 1.822-2.847 3.53-2.619l42.14 6.378c1.595.228 2.734 1.822 2.506 3.417z" fill="#29607D"/>
  <path opacity=".7" d="M60.147 79.838l-1.48-.228c-.115 0-.343-.228-.229-.342 0-.114.114-.228.342-.228l1.48.228h.798c.114 0 .342.114.342.228s-.114.342-.228.342h-1.025zm-3.759-.456l-2.277-.228c-.114 0-.342-.114-.228-.342 0-.113.114-.341.341-.227l2.278.227c.114 0 .342.114.228.342 0 .114-.114.228-.342.228zm-4.67-.57l-2.277-.227c-.114 0-.342-.114-.228-.342 0-.114.228-.342.342-.228l2.392.228c.114 0 .341.114.227.342-.113.227-.227.341-.455.227zm-4.669-.455l-2.391-.228c-.228 0-.342-.114-.228-.342 0-.114.228-.341.342-.227l2.391.227c.228 0 .342.114.228.342 0 .114-.114.228-.342.228zm-4.783-.456l-2.392-.227c-.227 0-.341-.114-.341-.342 0-.114.227-.342.341-.228l2.392.228c.228 0 .342.114.342.342 0 .113-.114.227-.342.227zm-4.783-.455l-2.392-.228c-.228 0-.342-.228-.342-.342 0-.228.228-.341.342-.228l2.392.228c.227 0 .341.114.341.342 0 .114-.114.228-.341.228zm-4.898-.57l-2.505-.228c-.228 0-.342-.227-.342-.341 0-.228.228-.342.342-.228l2.505.228c.228 0 .342.228.342.341 0 .114-.114.228-.342.228zm-4.897-.455l-2.506-.228c-.227 0-.341-.228-.341-.342 0-.227.227-.341.341-.227l2.506.227c.228 0 .342.228.342.342 0 .114-.228.228-.342.228zm-5.011-.57c-.911-.227-1.709-.797-2.278-1.594-.114-.114-.114-.342.114-.456.114-.114.341-.114.455.114a4.046 4.046 0 001.823 1.253c.227 0 .227.228.227.342 0 .227-.227.341-.341.341zM62.994 78.7c-.114 0-.114 0-.228-.114a.346.346 0 010-.456c.456-.456.797-1.139.911-1.822 0-.114.114-.228.342-.228.114 0 .342.114.228.342-.114.797-.456 1.594-1.025 2.164 0 .114-.114.114-.228.114zm-42.937-6.606c-.227 0-.341-.114-.341-.342v-.114l.227-2.278c0-.227.114-.341.342-.341.228 0 .342.228.228.341l-.228 2.278v.114c.114.228-.114.342-.228.342zm44.076 3.417c-.114 0-.228-.114-.228-.342l.228-2.278c0-.114.114-.341.228-.228.114 0 .227.114.227.342l-.227 2.278a.245.245 0 01-.228.228zm-43.62-8.2c-.228 0-.342-.228-.228-.342l.228-2.392c0-.228.114-.342.341-.342.228 0 .342.228.228.342l-.227 2.392c0 .228-.114.341-.342.341zm44.075 3.644c-.113 0-.227-.114-.227-.342l.227-2.277c0-.114.114-.342.228-.228.114 0 .228.114.228.341l-.228 2.278a.245.245 0 01-.228.228zm-43.506-8.428c-.227 0-.341-.228-.227-.342l.227-2.391c0-.228.114-.342.342-.228.228 0 .342.228.228.342l-.228 2.391c-.114.114-.228.228-.342.228zm43.848 3.872c-.114 0-.228-.114-.228-.341l.228-2.278c0-.114.114-.342.228-.228.114 0 .228.114.228.342l-.228 2.278c.114.227 0 .341-.228.227zm-43.392-8.655c-.228 0-.342-.228-.228-.342l.228-2.392c0-.227.114-.341.341-.227.228 0 .342.227.228.341l-.227 2.392c0 .114-.114.228-.342.228zm43.848 4.214c-.114 0-.228-.114-.228-.342l.228-2.278c0-.114.114-.342.228-.228.113 0 .227.114.227.342l-.227 2.278c.113.114 0 .228-.228.228zm-43.279-8.998c-.227 0-.341-.228-.227-.341l.227-2.392c0-.228.114-.342.342-.228.228 0 .342.228.228.342l-.228 2.391c0 .114-.228.228-.342.228zm43.734 4.442c-.114 0-.227-.114-.227-.342l.227-2.277c0-.114.114-.342.228-.228.114 0 .228.114.228.341l-.228 2.278c.114.114 0 .228-.228.228zm-43.278-9.225c-.228 0-.342-.228-.228-.342l.228-2.392c0-.227.114-.341.341-.227.228 0 .342.227.228.341l-.228 2.392c0 .228-.113.342-.341.228zm43.734 4.783c-.114 0-.228-.114-.228-.341l.228-2.278c0-.114.114-.342.228-.228.114 0 .227.114.227.342l-.227 2.277c0 .114 0 .228-.228.228zm-43.165-9.453c-.228 0-.341-.227-.228-.341l.228-1.823c0-.227.114-.455.114-.57 0-.113.228-.227.456-.227.227 0 .227.228.227.342 0 .114-.113.341-.113.57l-.228 1.822c-.114.113-.228.227-.456.227zm43.62 4.898c-.113 0-.227-.114-.227-.342v-.456c.114-.57-.114-1.139-.342-1.594-.114-.114 0-.342.114-.342.114-.114.342 0 .342.114.227.57.341 1.253.341 1.936v.456c0 .114 0 .228-.228.228zm-41.911-9.112c-.114 0-.228-.114-.228-.114-.114-.113-.114-.341.114-.455.683-.456 1.594-.683 2.505-.683.228 0 .342.113.342.341 0 .114-.114.342-.342.342-.797-.114-1.48.114-2.164.57h-.227zm40.09 5.24s-.115 0 0 0c-.456-.228-.798-.342-1.14-.456l-1.025-.114c-.114 0-.341-.228-.227-.342 0-.114.113-.228.341-.228l1.025.114c.456.114.911.228 1.253.456.114.114.228.228.114.455-.114.114-.228.114-.342.114zm-4.442-.912l-2.278-.341c-.114 0-.342-.228-.228-.342 0-.114.114-.228.342-.228l2.277.342c.114 0 .342.227.228.341-.114.114-.228.228-.341.228zm-4.67-.683l-2.278-.342c-.114 0-.341-.228-.228-.341 0-.114.228-.228.342-.228l2.278.341c.114 0 .342.228.228.342 0 .114-.114.228-.342.228zm-4.556-.683l-2.391-.342c-.228 0-.342-.228-.228-.342 0-.114.228-.228.342-.228l2.391.342c.114 0 .342.228.228.342 0 .114-.228.227-.342.227zm-4.67-.684l-2.39-.342c-.229 0-.343-.227-.229-.341 0-.114.228-.228.342-.228l2.392.342c.227 0 .341.227.227.341-.113.114-.227.228-.341.228zm-4.783-.683l-2.391-.342c-.228 0-.342-.228-.228-.342 0-.113.228-.341.342-.227l2.391.341c.228 0 .342.228.228.342 0 .114-.228.228-.342.228zm-4.783-.797l-2.392-.342c-.227 0-.341-.228-.341-.342 0-.114.227-.341.341-.227l2.392.341c.228 0 .342.228.228.342.114.228-.114.341-.228.228zm-4.897-.684l-2.506-.341c-.228 0-.342-.228-.342-.342 0-.114.228-.342.342-.228l2.506.342c.227 0 .341.228.341.341 0 .114-.227.228-.341.228z" fill="#fff"/>
  <path d="M69.714 54.782c-.228-.228-.57-.228-.797-.228l-9.226 2.05c-1.366.341-2.391 1.366-2.505 2.733l-.342 3.645c-.114 1.48.797 2.847 2.164 3.416l8.542 3.531c.228.114.57.114.797 0 .228-.114.456-.456.456-.683l1.366-13.667c-.114-.228-.227-.57-.455-.797z" fill="#1D4756"/>
  <path d="M62.652 61.843c-.114 1.025-1.025 1.708-2.05 1.594-1.025-.114-1.708-1.025-1.594-2.05.114-1.025 1.025-1.708 2.05-1.594.91.114 1.594 1.025 1.594 2.05z" fill="url(#paint5_linear_112:1184)"/>
  <defs>
    <linearGradient id="paint0_linear_112:1184" x1="36.546" y1="32.315" x2="81.148" y2="40.598" gradientUnits="userSpaceOnUse">
      <stop offset=".005" stop-color="#D8DEE8"/>
      <stop offset="1" stop-color="#F4F7FA"/>
    </linearGradient>
    <linearGradient id="paint1_linear_112:1184" x1="21.741" y1="43.604" x2="62.185" y2="23.052" gradientUnits="userSpaceOnUse">
      <stop offset=".005" stop-color="#D8DEE8"/>
      <stop offset="1" stop-color="#F4F7FA"/>
    </linearGradient>
    <linearGradient id="paint2_linear_112:1184" x1="61.636" y1="19.358" x2="37.111" y2="59.043" gradientUnits="userSpaceOnUse">
      <stop stop-color="#311944"/>
      <stop offset="1" stop-color="#893976"/>
    </linearGradient>
    <linearGradient id="paint3_linear_112:1184" x1="48.847" y1="57.819" x2="52.835" y2="49.812" gradientUnits="userSpaceOnUse">
      <stop stop-color="#FB6FBB"/>
      <stop offset="1" stop-color="#FF9085"/>
    </linearGradient>
    <linearGradient id="paint4_linear_112:1184" x1="56.179" y1="46.868" x2="61.369" y2="36.447" gradientUnits="userSpaceOnUse">
      <stop stop-color="#FB6FBB"/>
      <stop offset="1" stop-color="#FF9085"/>
    </linearGradient>
    <linearGradient id="paint5_linear_112:1184" x1="73.117" y1="59.388" x2="56.924" y2="62.288" gradientUnits="userSpaceOnUse">
      <stop offset=".005" stop-color="#D8DEE8"/>
      <stop offset="1" stop-color="#F4F7FA"/>
    </linearGradient>
  </defs>
</svg>