<svg xmlns="http://www.w3.org/2000/svg" viewBox="0 0 90 90">
  <defs/>
  <path d="M86.016 61.031c-9.097 21.303-33.048 30.4-51.933 28.788-5.181-.461-15.43-1.267-23.49-8.867C-4.952 66.328-2.534 35.7 12.32 17.62 14.278 15.317 27.405-.228 48.016.003 63.101.118 73.695 8.639 74.961 9.79c1.612 1.382 5.182 4.491 8.406 9.558 7.6 11.86 8.29 28.441 2.648 41.683z" fill="#F4F7FA"/>
  <path d="M20.266 14.742c-.23 11.169-1.152 49.859-.806 63.562 0 1.497 1.266 2.648 2.763 2.648 7.37.23 34.315.806 46.405.346 2.534-.116 4.491-2.073 4.606-4.491.23-11.746.806-44.793-.46-59.993-.116-1.842-1.612-3.224-3.455-3.454-8.06-.806-35.12-2.649-45.484-2.073-2.072.115-3.454 1.612-3.57 3.454z" fill="#008747"/>
  <path d="M22.453 19.693v9.442c0 1.842 1.382 3.34 2.994 3.34h41.224c1.612 0 2.993-1.498 2.993-3.34v-9.442c0-1.842-1.381-3.34-2.993-3.34H25.447c-1.727.116-2.994 1.498-2.994 3.34z" fill="#91B3FA"/>
  <path d="M67.477 19.693a1.641 1.641 0 00-1.382-.69L27.52 18.31c-1.036 0-1.842.806-1.957 1.958l-.806 9.442c-.116.806 1.036 1.382 2.533 1.497l37.884.46c1.497 0 2.648-.575 2.648-1.381l.115-9.097a1.703 1.703 0 00-.46-1.497z" fill="#F4F7FA"/>
  <path d="M32.241 42.147c0 1.727-1.267 2.994-2.879 2.994h-3.454c-1.612 0-2.879-1.382-2.879-2.994 0-1.727 1.267-2.994 2.879-2.994h3.454c1.728 0 2.879 1.267 2.879 2.994zM45.023 42.147c0 1.727-1.267 2.994-2.879 2.994H38.69c-1.613 0-2.88-1.382-2.88-2.994 0-1.727 1.267-2.994 2.88-2.994h3.454c1.612 0 2.879 1.267 2.879 2.994zM57.343 42.147c0 1.727-1.266 2.994-2.878 2.994H51.01c-1.612 0-2.878-1.382-2.878-2.994 0-1.727 1.266-2.994 2.878-2.994h3.455c1.612 0 2.878 1.267 2.878 2.994zM69.78 42.608c0 1.727-1.267 3.109-2.88 3.109h-3.338c-1.612 0-2.88-1.382-2.88-3.11 0-1.727 1.267-3.108 2.88-3.108H66.9c1.612 0 2.879 1.381 2.879 3.109zM32.241 51.704c0 1.728-1.267 2.994-2.879 2.994h-3.454c-1.612 0-2.879-1.382-2.879-2.994 0-1.727 1.267-2.993 2.879-2.993h3.454c1.728-.116 2.879 1.266 2.879 2.993zM45.023 51.704c0 1.728-1.267 2.994-2.879 2.994H38.69c-1.613 0-2.88-1.382-2.88-2.994 0-1.727 1.267-2.993 2.88-2.993h3.454c1.612-.116 2.879 1.266 2.879 2.993zM57.343 51.704c0 1.728-1.266 2.994-2.878 2.994H51.01c-1.612 0-2.878-1.382-2.878-2.994 0-1.727 1.266-2.993 2.878-2.993h3.455c1.612-.116 2.878 1.266 2.878 2.993zM70.125 51.704c0 1.728-1.266 2.994-2.879 2.994h-3.454c-1.612 0-2.879-1.382-2.879-2.994 0-1.727 1.267-2.993 2.88-2.993h3.453c1.613-.116 2.88 1.266 2.88 2.993zM32.241 60.11c0 1.727-1.267 2.994-2.879 2.994h-3.454c-1.612 0-2.879-1.382-2.879-2.994 0-1.727 1.267-2.994 2.879-2.994h3.454c1.728-.115 2.879 1.267 2.879 2.994zM45.023 60.11c0 1.727-1.267 2.994-2.879 2.994H38.69c-1.613 0-2.88-1.382-2.88-2.994 0-1.727 1.267-2.994 2.88-2.994h3.454c1.612-.115 2.879 1.267 2.879 2.994zM57.343 60.11c0 1.727-1.266 2.994-2.878 2.994H51.01c-1.612 0-2.878-1.382-2.878-2.994 0-1.727 1.266-2.994 2.878-2.994h3.455c1.612-.115 2.878 1.267 2.878 2.994zM32.241 69.322c0 1.727-1.267 2.994-2.879 2.994h-3.454c-1.612 0-2.879-1.382-2.879-2.994 0-1.727 1.267-2.994 2.879-2.994h3.454c1.728-.115 2.879 1.267 2.879 2.994zM45.023 69.322c0 1.727-1.267 2.994-2.879 2.994H38.69c-1.613 0-2.88-1.382-2.88-2.994 0-1.727 1.267-2.994 2.88-2.994h3.454c1.612-.115 2.879 1.267 2.879 2.994zM57.343 69.322c0 1.727-1.266 2.994-2.878 2.994H51.01c-1.612 0-2.878-1.382-2.878-2.994 0-1.727 1.266-2.994 2.878-2.994h3.455c1.612-.115 2.878 1.267 2.878 2.994zM68.859 69.092c0 2.073-1.612 3.8-3.57 3.8h-.23c-1.958 0-3.57-1.727-3.57-3.8v-7.37c0-2.072 1.612-3.8 3.57-3.8h.23c1.957 0 3.57 1.728 3.57 3.8v7.37z" fill="#1D4756"/>
  <path d="M64.598 21.075c0 .345-.346.69-.691.69h-1.843c-.345 0-.69-.345-.69-.69 0-.346.345-.691.69-.691h1.843c.345 0 .69.345.69.69zM64.598 30.056c0 .346-.346.691-.691.691h-1.843c-.345 0-.69-.345-.69-.69 0-.346.345-.691.69-.691h1.843c.345 0 .69.23.69.69zM61.72 24.76c0 .345-.346.69-.692.69-.345 0-.69-.345-.69-.69v-1.843c0-.345.345-.69.69-.69.346 0 .691.345.691.69v1.842zM61.72 28.444c0 .346-.346.691-.692.691-.345 0-.69-.345-.69-.69v-1.843c0-.346.345-.691.69-.691.346 0 .691.345.691.69v1.843zM66.21 24.76c0 .345-.345.69-.691.69-.345 0-.69-.345-.69-.69v-1.843c0-.345.345-.69.69-.69.346 0 .69.345.69.69v1.842zM66.21 28.444c0 .346-.345.691-.691.691-.345 0-.69-.345-.69-.69v-1.843c0-.346.345-.691.69-.691.346 0 .69.345.69.69v1.843z" fill="#29607D"/>
</svg>