<svg xmlns="http://www.w3.org/2000/svg" viewBox="0 0 90 90">
  <defs/>
  <path d="M79.15 77.354c-1.822 1.937-3.53 3.19-4.897 4.215-16.174 11.504-35.31 8.2-39.41 7.29-5.922-1.14-17.54-3.532-25.969-13.44-12.643-14.922-10.706-38.385-.91-53.876C9.785 18.696 19.353 2.863 38.601.358c11.732-1.48 25.4 1.595 35.31 9.91C94.526 27.58 93.16 62.66 79.15 77.353z" fill="#F4F7FA"/>
  <path d="M28.123 14.368c-.113 11.39-.227 50.571.342 64.467.114 1.48 1.14 2.62 2.392 2.62 6.265.114 29.045.455 39.182-.228 2.164-.114 3.758-2.164 3.758-4.67 0-11.96 0-45.446-1.366-60.822-.114-1.823-1.367-3.303-2.962-3.417-6.834-.684-29.728-2.278-38.498-1.481-1.709.114-2.848 1.595-2.848 3.53z" fill="#00A451"/>
  <path d="M30.857 17.785c-.228 9.226-.797 39.637-.341 50.913.113 1.595 1.252 2.961 2.62 3.075 5.808.342 25.627.912 34.055 0 1.481-.114 2.734-1.594 2.734-3.417.342-9.34 1.139-37.814.57-48.977-.115-1.822-1.254-3.189-2.848-3.303-6.265-.57-27.336-1.822-34.512-1.253-1.139.114-2.164 1.367-2.278 2.962z" fill="#F4F7FA"/>
  <path d="M45.892 12.545c0 .342.228.684.57.684 1.48.114 5.58.228 7.517.341.342 0 .684-.341.57-.797v-.114c0-.341-.228-.455-.456-.57-1.253-.113-5.012-.455-7.517-.341-.456.228-.798.456-.684.797zM41.792 33.503c-.456 12.87 5.125 19.59 13.326 23.805l5.695-3.19c-8.429-5.353-13.668-12.984-14.58-23.918l-4.441 3.303z" fill="#008747"/>
  <path d="M54.776 57.08c5.126 1.823 5.81 1.937 10.593-.114.57-.227.683-.91.342-1.367l-6.492-7.859a.533.533 0 00-.912 0L56.6 50.246l-1.823 6.834zM41.791 33.503c.342-4.898.57-5.581 4.215-9.112.455-.456 1.139-.342 1.367.228l4.67 9.112c.227.341 0 .797-.456.91l-3.075.57-6.379-1.025c-.114-.114-.342-.455-.342-.683z" fill="#008747"/>
  <path d="M54.093 84.758H7.963c-1.822 0-3.417-1.367-3.417-3.075V54.119c0-1.595 1.367-2.962 3.19-3.075l47.951-2.392c2.05-.114 3.645 1.367 3.531 3.303L57.396 81.91c0 1.595-1.48 2.848-3.303 2.848z" fill="#1D4756"/>
  <path d="M32.11 68.129l25.286-19.136c-.456-.227-1.025-.341-1.595-.341L7.85 51.044c-.797 0-1.594.341-2.164.797L24.593 67.9c2.05 1.822 5.353 1.936 7.517.228z" fill="#29607D"/>
  <path d="M28.579 67.217c-1.253 0-2.506-.455-3.53-1.252l-7.063-5.696c-.227-.113-.227-.455 0-.683.228-.228.456-.228.684 0l7.061 5.695c1.481 1.253 3.76 1.367 5.354.228l3.645-2.392c.227-.114.57-.114.683.114.114.228.114.456-.114.683l-3.645 2.392c-.91.57-1.936.911-3.075.911z" fill="url(#paint0_linear_112:1214)"/>
  <path d="M15.708 58.22c-.114 0-.227 0-.341-.115l-.912-.797c-.227-.114-.227-.456 0-.683.228-.228.456-.228.684 0l.911.797c.228.114.228.456 0 .683-.114.114-.228.114-.342.114z" fill="url(#paint1_linear_112:1214)"/>
  <defs>
    <linearGradient id="paint0_linear_112:1214" x1="17.854" y1="63.318" x2="35.624" y2="63.318" gradientUnits="userSpaceOnUse">
      <stop offset=".005" stop-color="#D8DEE8"/>
      <stop offset="1" stop-color="#F4F7FA"/>
    </linearGradient>
    <linearGradient id="paint1_linear_112:1214" x1="14.252" y1="57.373" x2="16.217" y2="57.373" gradientUnits="userSpaceOnUse">
      <stop offset=".005" stop-color="#D8DEE8"/>
      <stop offset="1" stop-color="#F4F7FA"/>
    </linearGradient>
  </defs>
</svg>