<svg xmlns="http://www.w3.org/2000/svg" viewBox="0 0 93 90">
  <defs/>
  <path d="M91.6 37.651c-1.823-11.848-3.304-20.051-9.798-24.609C70.75 5.41 58.446 17.715 42.724 9.511 34.977 5.409 34.749.738 28.254.054 16.749-.97 7.293 12.814 6.495 13.954 1.481 21.13-.114 29.904 1.823 38.22 3.19 43.69 3.988 49.272 3.76 54.855c-.456 9.684-.228 18.798 9.228 24.495 8.43 5.127 19.026 9.684 29.052 10.481 6.836.57 14.583-.341 21.191-2.164 33.61-9 30.875-33.724 28.369-50.016z" fill="#F4F7FA"/>
  <path d="M88.524 69.323c0-1.822-.684-3.417-1.71-4.443v-1.025l-2.62.114c-2.164.114-3.987 2.62-3.987 5.582 0 2.962 1.823 5.355 3.873 5.355h2.735v-1.025c1.025-1.14 1.709-2.735 1.709-4.558z" fill="#1D4756"/>
  <path d="M90.916 69.21c0 3.076-1.823 5.583-4.101 5.696-2.279.114-4.102-2.278-4.102-5.354s1.823-5.697 4.102-5.697c2.278-.114 4.101 2.279 4.101 5.355z" fill="#29607D"/>
  <path d="M88.865 69.324c0 1.709-.911 3.19-2.05 3.304-1.14 0-2.051-1.367-2.051-3.076 0-1.71.911-3.19 2.05-3.304 1.14-.114 2.051 1.367 2.051 3.076z" fill="#fff"/>
  <path d="M86.815 66.248h-.342c.911.228 1.709 1.481 1.709 3.076s-.684 2.962-1.71 3.19h.343c1.139 0 2.05-1.481 2.05-3.304 0-1.823-.911-3.076-2.05-2.962z" fill="#D8DEE8"/>
  <path d="M45.002 68.412c0-2.962-1.14-5.468-2.848-7.063l-.228-1.71-4.215.115c-3.874.227-7.064 4.329-7.064 9.228s3.304 8.659 6.95 8.659l4.557-.228v-1.71c1.709-1.594 2.848-4.329 2.848-7.29z" fill="#1D4756"/>
  <path d="M48.99 68.299c0 4.899-3.076 9-6.95 9.228-3.873.228-7.063-3.646-7.063-8.659 0-5.013 3.19-9.114 7.063-9.228 3.874-.114 6.95 3.76 6.95 8.659z" fill="#29607D"/>
  <path d="M45.572 68.412c0 2.849-1.595 5.127-3.532 5.241-1.936.114-3.532-2.164-3.532-5.013 0-2.848 1.596-5.127 3.532-5.24 1.937 0 3.532 2.164 3.532 5.012z" fill="#fff"/>
  <path d="M42.04 63.4c-.228 0-.342 0-.57.114 1.71.341 2.963 2.392 2.963 4.898 0 2.507-1.254 4.672-2.962 5.127h.57c1.936-.114 3.53-2.392 3.53-5.24 0-2.849-1.594-4.9-3.53-4.9z" fill="#D8DEE8"/>
  <path d="M85.334 50.526l-13.786.113h-.911l-3.076.456c-5.697.912-10.824 4.671-13.786 10.254l-.911 1.595-.114.114-4.785.114c-.114 0-.114-.114-.114-.114v-3.076c0-1.254-1.026-2.393-2.279-2.279l-7.291.114c-.798 0-1.368.684-1.368 1.481v4.9l11.85 10.595a.87.87 0 00.569.227l12.418-.57a.857.857 0 00.798-.569l1.823-4.899c.57-1.595 1.936-2.62 3.531-2.62l5.583-.228c.57 0 1.14-.342 1.481-.912l7.291-1.025 3.077-13.672z" fill="#008747"/>
  <path d="M60.953 54.627c-2.051 0-3.646-2.279-3.646-5.127s1.595-5.24 3.646-5.24c2.05 0 3.645 2.278 3.645 5.126 0 2.848-1.595 5.127-3.645 5.24zm0-8.887c-1.14 0-2.165 1.595-2.165 3.646 0 2.05 1.025 3.532 2.165 3.532 1.139 0 2.164-1.709 2.164-3.646 0-1.937-1.025-3.532-2.164-3.532z" fill="#1D4756"/>
  <path d="M57.99 50.184v-1.595l5.81-.228v1.595l-5.81.228z" fill="#1D4756"/>
  <path d="M52.75 58.728l-1.367-1.367 8.886-8.886.912 1.48-8.431 8.773z" fill="#1D4756"/>
  <path d="M43.635 58.159l-1.595-.228 3.19-23.811c.57-4.672 4.443-8.09 9-7.976l16.862.456 1.367 26.774-1.709.114-1.367-25.179-15.266-.342c-3.646-.114-6.836 2.735-7.292 6.494l-3.19 23.698z" fill="#29607D"/>
  <path d="M79.181 54.057c0 .912-.683 1.595-1.48 1.595l-6.836.114c-.912 0-1.596-.683-1.596-1.709v-11.05c0-.912.798-1.71 1.71-1.596l6.835.228c.798 0 1.481.797 1.481 1.709v10.71h-.114z" fill="#1D4756"/>
  <path d="M81.004 60.21c0 .911-.683 1.709-1.595 1.709l-15.608.341c-.911 0-1.709-.683-1.709-1.709v-5.81c0-.912.798-1.71 1.709-1.71l15.608-.227c.912 0 1.595.684 1.595 1.709v5.697z" fill="#1D4756"/>
  <path d="M57.193 56.906l-18.798.113c-.912 0-1.71.684-1.71 1.596v7.975l20.964-.57-.456-9.114z" fill="#008747"/>
  <path d="M61.18 57.817l-1.595-.228 2.963-23.242c.57-4.443 4.101-7.747 8.317-7.747h.227l13.672.342c1.367 0 2.392 1.14 2.507 2.62l1.253 23.584-1.71.114-1.139-23.584c0-.57-.455-1.025-.911-1.025l-13.672-.342c-3.418-.114-6.38 2.62-6.835 6.266L61.18 57.817z" fill="#29607D"/>
  <path d="M91.828 54.057v8.887c0 1.025-.798 1.937-1.71 1.937l-5.354.114c-1.481 0-2.848 1.025-3.418 2.62L79.523 72.4c-.114.342-.455.57-.683.57l-11.963.57c-.228 0-.342-.115-.57-.229l-.683-.683-10.596-9.684v-4.785c0-.798.57-1.481 1.367-1.481l6.95-.114a2.285 2.285 0 012.279 2.278v3.076c0 .114 0 .114.114.114l4.557-.114s.114 0 .114-.114l.797-1.595c2.849-5.354 7.748-9 13.216-10.025l2.849-.456c1.139-.228 2.278.114 3.076 1.025.911.912 1.48 2.051 1.48 3.304z" fill="#00A451"/>
  <path d="M48.42 64.083c-1.595 0-3.19.114-4.785.114.114-13.9.342-27.799.456-41.585 1.253 0 2.62.115 3.874.115.113 13.785.341 27.57.455 41.356z" fill="#1D4756"/>
  <path d="M46.37 64.083l-1.026.114V22.612l1.026.115v41.356z" fill="#29607D"/>
  <path d="M29.622 64.653c-1.71 0-3.418.114-5.127.114.114-14.241.342-28.483.456-42.724 1.367 0 2.734.114 4.101.114.228 14.127.456 28.255.57 42.496z" fill="url(#paint0_linear_112:1266)"/>
  <path opacity=".5" d="M27.57 64.653h-1.138v-42.61h1.139v42.61z" fill="#fff"/>
  <path d="M65.852 72.97s1.253-10.14-3.646-11.507H50.698l-1.366 5.127 16.52 6.38z" fill="url(#paint1_linear_112:1266)"/>
  <path d="M61.636 70.805c0-2.849-1.14-5.355-2.734-6.95l-.228-1.595-3.988.114c-3.645.228-6.494 4.101-6.494 8.772 0 4.672 2.963 8.431 6.608 8.431l4.102-.114v-1.709c1.709-1.48 2.734-3.987 2.734-6.95z" fill="#1D4756"/>
  <path d="M65.624 70.691c0 4.785-2.962 8.773-6.608 9-3.76.228-6.722-3.531-6.722-8.43 0-4.9 3.076-8.887 6.722-9 3.646-.115 6.608 3.645 6.608 8.43z" fill="#29607D"/>
  <path d="M62.206 70.805c0 2.734-1.481 5.013-3.304 5.127-1.823.114-3.304-2.05-3.304-4.9 0-2.733 1.481-5.012 3.304-5.126 1.823 0 3.304 2.165 3.304 4.899z" fill="#fff"/>
  <path d="M58.902 66.02c-.228 0-.342 0-.57.114 1.596.342 2.735 2.392 2.735 4.785 0 2.392-1.253 4.557-2.734 5.013h.57c1.822-.114 3.303-2.393 3.303-5.127s-1.48-4.899-3.304-4.785z" fill="#D8DEE8"/>
  <path d="M49.902 75.818l-25.293-1.025v-13.33l25.293-.114v14.469z" fill="#00A451"/>
  <path d="M47.053 75.704l-24.723-.911v-13.33l24.723-.114v14.355z" fill="#008747"/>
  <path d="M15.608 76.73v1.367l3.988.57 24.95-2.28V61.692l-1.139-1.14-1.822 14.128-25.977 2.05z" fill="#1D4756"/>
  <path d="M0 74.906v1.254l3.304.57 23.697-1.937.456-13.444-.57-.912-2.278 13.33L0 74.907z" fill="#1D4756"/>
  <path d="M24.495 60.437l-.228 12.874L0 74.906l3.304.228 23.242-1.025.341-13.672h-2.392z" fill="url(#paint2_linear_112:1266)"/>
  <path d="M22.33 47.221L7.633 45.4V23.866L22.33 21.13v26.09z" fill="#00A451"/>
  <path d="M40.103 46.082l-17.773 1.14v-26.09l17.773 2.506v22.444z" fill="#008747"/>
  <path d="M29.052 22.043v3.646l5.924.57V22.84l-5.924-.797z" fill="#1D4756"/>
  <path d="M43.635 75.704l-24.04 1.709v-35.09l24.04 1.708v31.673z" fill="#00A451"/>
  <path d="M19.596 77.413L0 75.02V44.601l19.596-2.279v35.09z" fill="#008747"/>
  <path d="M28.14 42.892v5.583l7.976.341v-5.354l-7.975-.57z" fill="#1D4756"/>
  <defs>
    <linearGradient id="paint0_linear_112:1266" x1="24.583" y1="43.38" x2="29.663" y2="43.38" gradientUnits="userSpaceOnUse">
      <stop stop-color="#311944"/>
      <stop offset="1" stop-color="#6B3976"/>
    </linearGradient>
    <linearGradient id="paint1_linear_112:1266" x1="49.414" y1="67.208" x2="66.019" y2="67.208" gradientUnits="userSpaceOnUse">
      <stop stop-color="#40447E"/>
      <stop offset=".996" stop-color="#3C3B6B"/>
    </linearGradient>
    <linearGradient id="paint2_linear_112:1266" x1="37.471" y1="28.439" x2="22.318" y2="57.287" gradientUnits="userSpaceOnUse">
      <stop stop-color="#311944"/>
      <stop offset="1" stop-color="#6B3976"/>
    </linearGradient>
  </defs>
</svg>